<svg width="32" height="32" viewBox="0 0 32 32" fill="none" xmlns="http://www.w3.org/2000/svg">
<rect width="32" height="32" rx="16" fill="#FFF6D5"/>
<path d="M17.4503 10.815C17.4511 9.99647 15.782 9.3335 13.7255 9.3335C11.669 9.3335 10.0015 9.99721 10 10.815M10 10.815C10 11.6335 11.6676 12.2965 13.7255 12.2965C15.7835 12.2965 17.4511 11.6335 17.4511 10.815L17.4511 16.5631M10 10.815V19.7039C10.0007 20.5224 11.6683 21.1854 13.7255 21.1854C14.7232 21.1854 15.6241 21.0276 16.2924 20.7736M10.0007 13.778C10.0007 14.5965 11.6683 15.2595 13.7263 15.2595C15.7843 15.2595 17.4518 14.5965 17.4518 13.778M16.3372 17.7966C15.6651 18.0595 14.7434 18.2225 13.7255 18.2225C11.6683 18.2225 10.0007 17.5595 10.0007 16.741M21.6848 16.9766C22.994 18.2781 22.994 20.3892 21.6848 21.6907C20.3756 22.9922 18.2521 22.9922 16.9429 21.6907C15.6338 20.3892 15.6338 18.2781 16.9429 16.9766C18.2521 15.6751 20.3756 15.6751 21.6848 16.9766Z" stroke="#F28C0D" stroke-linecap="round" stroke-linejoin="round"/>
</svg>
