<svg width="25" height="24" viewBox="0 0 25 24" fill="none" xmlns="http://www.w3.org/2000/svg">
<path opacity="0.4" d="M16.8328 22H8.16618C4.7769 22 2.5 19.6229 2.5 16.0843V7.91672C2.5 4.37811 4.7769 2 8.16618 2H16.8338C20.2231 2 22.5 4.37811 22.5 7.91672V16.0843C22.5 19.6229 20.2231 22 16.8328 22Z" fill="#989898"/>
<path d="M15.9284 13.0894C16.1506 12.7981 16.9742 11.8891 18.0387 12.5366C18.7177 12.9446 19.2891 13.4965 19.9001 14.0874C20.1329 14.3133 20.2998 14.5714 20.4098 14.8462C20.7428 15.6781 20.5704 16.6785 20.2145 17.5024C19.7926 18.4833 18.9843 19.2243 17.9665 19.5483C17.5145 19.6933 17.0401 19.7554 16.5671 19.7554H8.18619C7.35232 19.7554 6.61438 19.5616 6.00944 19.1978C5.6305 18.9698 5.56355 18.445 5.8444 18.103C6.31439 17.533 6.77777 16.9603 7.24576 16.3833C8.13769 15.2794 8.73897 14.9599 9.4069 15.2407C9.67786 15.3567 9.95018 15.5314 10.2301 15.7153C10.9761 16.2093 12.0136 16.8879 13.3796 16.1519C14.3194 15.6378 14.8626 14.7557 15.3366 13.9917C15.5306 13.6807 15.7144 13.3703 15.9284 13.0894ZM9.25944 6.18896C10.6294 6.18896 11.7448 7.30529 11.7448 8.67529C11.7446 10.0451 10.6293 11.1597 9.25944 11.1597C7.8887 11.1595 6.77524 10.045 6.77506 8.67529C6.77506 7.3054 7.88859 6.18914 9.25944 6.18896Z" fill="#989898"/>
</svg>
