<svg width="32" height="33" viewBox="0 0 32 33" fill="none" xmlns="http://www.w3.org/2000/svg">
<rect y="0.0424805" width="32" height="32" rx="16" fill="#FFF6D5"/>
<g clip-path="url(#clip0_1456_29951)">
<path d="M10 12.0426L12 9.37598H20L22 12.0426M10 12.0426V21.376C10 21.7296 10.1405 22.0687 10.3905 22.3188C10.6406 22.5688 10.9797 22.7093 11.3333 22.7093H20.6667C21.0203 22.7093 21.3594 22.5688 21.6095 22.3188C21.8595 22.0687 22 21.7296 22 21.376V12.0426M10 12.0426H22M18.6667 14.7093C18.6667 15.4166 18.3857 16.0948 17.8856 16.5949C17.3855 17.095 16.7072 17.376 16 17.376C15.2928 17.376 14.6145 17.095 14.1144 16.5949C13.6143 16.0948 13.3333 15.4166 13.3333 14.7093" stroke="#F28C0D" stroke-linecap="round" stroke-linejoin="round"/>
</g>
<defs>
<clipPath id="clip0_1456_29951">
<rect width="16" height="16" fill="white" transform="translate(8 8.04248)"/>
</clipPath>
</defs>
</svg>
