<svg width="143" height="49" viewBox="0 0 143 49" fill="none" xmlns="http://www.w3.org/2000/svg">
<path d="M12.6826 9.99209C12.8214 9.99429 12.9602 9.99648 13.1031 9.99875C13.4412 10.0044 13.7791 10.0124 14.117 10.0225C14.1412 10.1008 14.1654 10.1791 14.1904 10.2598C15.095 13.1851 16.0024 16.1096 16.9099 19.0341C17.1103 19.0341 17.3106 19.0341 17.5171 19.0341C17.5188 18.9384 17.5206 18.8428 17.5224 18.7443C17.5316 18.303 17.5433 17.8618 17.555 17.4205C17.5591 17.195 17.5591 17.195 17.5633 16.9648C17.6153 15.1631 18.0051 13.4589 19.255 12.0928C20.21 11.2312 21.407 10.8839 22.6702 10.8445C23.1028 10.875 23.1028 10.875 23.4671 11.1185C23.5564 11.3324 23.5564 11.3324 23.6191 11.5949C23.6436 11.6943 23.6681 11.7938 23.6933 11.8963C23.7187 12.0057 23.7441 12.1151 23.7702 12.2278C23.7981 12.3428 23.826 12.4579 23.8547 12.5765C23.947 12.9586 24.0372 13.3413 24.1274 13.7239C24.1912 13.9901 24.2552 14.2563 24.3192 14.5224C24.4881 15.2252 24.6551 15.9284 24.8219 16.6317C24.9906 17.342 25.161 18.0518 25.3313 18.7618C26.3405 22.9748 26.3405 22.9748 26.7457 24.7576C26.7705 24.2069 26.7951 23.6562 26.8197 23.1054C26.8414 22.6191 26.8633 22.1328 26.8854 21.6465C26.9456 20.3133 27.0002 18.9802 27.046 17.6465C27.0602 17.2505 27.0745 16.8546 27.0889 16.4586C27.0979 16.203 27.1062 15.9474 27.114 15.6917C27.125 15.3322 27.1379 14.9729 27.1513 14.6135C27.1553 14.4553 27.1553 14.4553 27.1593 14.2939C27.2008 13.2782 27.4574 12.4584 28.2029 11.7274C29.3965 10.9465 30.6493 10.9646 32.0279 10.9815C32.342 10.9843 32.6561 10.9871 32.9702 10.9897C33.243 10.992 33.5158 10.9944 33.7886 10.9968C34.7498 13.8726 35.6952 16.7533 36.626 19.6391C36.8108 20.2118 36.9959 20.7844 37.1809 21.357C37.3321 21.8248 37.483 22.2927 37.6335 22.7607C37.8977 23.5822 38.1629 24.4032 38.4345 25.2223C38.5511 25.5742 38.6668 25.9265 38.7825 26.2787C38.8369 26.4437 38.8918 26.6085 38.9472 26.7732C39.023 26.9988 39.0972 27.2249 39.1713 27.4511C39.2137 27.5783 39.256 27.7055 39.2996 27.8365C39.3749 28.1697 39.3697 28.3383 39.253 28.6545C39.1509 28.6067 39.0488 28.5589 38.9436 28.5096C38.5569 28.3285 38.1701 28.1474 37.7833 27.9663C37.6174 27.8886 37.4515 27.8109 37.2856 27.7332C37.1245 27.6577 36.9634 27.5824 36.8022 27.5073C36.6406 27.4313 36.4795 27.3541 36.319 27.2759C35.9348 27.0904 35.5792 26.9406 35.1677 26.8204C34.6421 26.6523 34.1977 26.4961 33.9012 26.0017C33.6264 25.3822 33.4618 24.7286 33.2918 24.074C33.1715 23.6242 33.0383 23.1791 32.9012 22.7342C32.8505 22.5695 32.7999 22.4047 32.7492 22.24C32.7236 22.1567 32.698 22.0735 32.6716 21.9877C32.5414 21.5623 32.414 21.136 32.2867 20.7097C32.2611 20.6243 32.2356 20.5389 32.2093 20.451C32.1574 20.2772 32.1055 20.1034 32.0536 19.9296C31.9203 19.4836 31.7866 19.0378 31.653 18.5919C31.393 17.7246 31.1335 16.8572 30.8743 15.9896C30.7676 17.6986 30.661 19.4075 30.5544 21.1164C30.5049 21.9104 30.4554 22.7044 30.4058 23.4983C30.3579 24.2658 30.31 25.0333 30.2622 25.8008C30.2434 26.1019 30.2246 26.4031 30.2058 26.7042C30.1178 28.1137 30.0298 29.5233 29.9469 30.9332C29.9412 31.029 29.9356 31.1248 29.9297 31.2236C29.9048 31.6467 29.8801 32.0698 29.8561 32.493C29.8143 33.2074 29.76 33.9129 29.66 34.6216C28.1864 34.4036 27.012 33.5372 26.1163 32.3631C23.1811 28.3619 22.2937 23.1793 21.2814 18.4252C21.1942 19.2053 21.1393 19.9775 21.1258 20.7622C21.1236 20.8667 21.1214 20.9713 21.1192 21.079C21.1145 21.3037 21.1101 21.5284 21.1059 21.7531C21.0991 22.1102 21.0918 22.4672 21.0843 22.8243C21.0685 23.5829 21.0535 24.3415 21.0385 25.1001C21.0212 25.9789 21.0035 26.8576 20.9851 27.7363C20.978 28.0855 20.9714 28.4346 20.9648 28.7838C20.9419 29.9222 20.903 31.052 20.7957 32.1861C20.2617 32.3013 19.7443 32.3341 19.1995 32.3464C19.1061 32.3489 19.0126 32.3515 18.9163 32.3541C18.6194 32.362 18.3225 32.3692 18.0256 32.3764C17.8236 32.3816 17.6216 32.3869 17.4196 32.3923C16.9259 32.4053 16.4322 32.4176 15.9385 32.4296C15.8367 32.0721 15.7356 31.7143 15.6349 31.3565C15.5915 31.2042 15.5915 31.2042 15.5472 31.0489C15.5198 30.9512 15.4924 30.8535 15.4641 30.7528C15.4387 30.6629 15.4133 30.573 15.3871 30.4803C15.3313 30.2376 15.3313 30.2376 15.3313 29.8723C15.1795 29.8403 15.0277 29.8083 14.8713 29.7753C14.1909 29.6235 13.525 29.4297 12.8567 29.232C12.7289 29.1945 12.6011 29.157 12.4694 29.1184C12.0648 28.9996 11.6603 28.8804 11.2558 28.7611C10.98 28.68 10.7042 28.599 10.4284 28.518C9.75541 28.3203 9.08258 28.1223 8.40984 27.9239C8.1726 28.6047 7.97196 29.2801 7.81882 29.9846C7.7786 30.1614 7.73828 30.3382 7.69786 30.515C7.63585 30.7884 7.57452 31.0619 7.51494 31.3358C7.45634 31.6039 7.39495 31.8712 7.3331 32.1385C7.31612 32.2198 7.29915 32.3012 7.28166 32.385C7.14393 32.9658 6.91264 33.2606 6.46696 33.6474C6.37523 33.7334 6.28351 33.8195 6.189 33.9081C5.564 34.4741 4.92573 35.0179 4.27127 35.5492C3.88607 35.8647 3.5065 36.1862 3.12764 36.5092C2.86474 36.7327 2.60163 36.9559 2.33835 37.179C2.27365 37.2338 2.20894 37.2887 2.14227 37.3452C1.95775 37.501 1.7724 37.6559 1.58701 37.8107C1.4801 37.9003 1.37318 37.99 1.26303 38.0823C1.00263 38.275 1.00263 38.275 0.759766 38.275C0.949288 36.9963 1.30169 35.7594 1.63728 34.5137C1.6996 34.2808 1.76187 34.0479 1.8241 33.815C1.98691 33.2061 2.15038 32.5973 2.31398 31.9886C2.48124 31.3658 2.64788 30.7429 2.81458 30.1199C3.14096 28.9006 3.46802 27.6815 3.79551 26.4625C3.72124 26.4462 3.64698 26.4298 3.57047 26.4129C3.47264 26.3912 3.3748 26.3696 3.27401 26.3472C3.1288 26.3151 3.1288 26.3151 2.98066 26.2824C2.63982 26.2046 2.30318 26.1151 1.96647 26.0211C1.85236 25.9894 1.73825 25.9577 1.62068 25.925C1.53694 25.9015 1.4532 25.8779 1.36691 25.8536C1.48212 25.1947 1.72518 24.6229 1.98924 24.0118C2.0337 23.9014 2.07815 23.791 2.12395 23.6773C2.35703 23.1407 2.48392 22.8676 2.99578 22.5604C3.51565 22.4213 4.03267 22.3239 4.56393 22.2407C4.97939 22.033 5.01659 21.8091 5.16369 21.3844C5.3103 20.9229 5.43965 20.4579 5.56335 19.9898C5.59133 19.8852 5.61931 19.7807 5.64814 19.673C5.70704 19.4525 5.76571 19.232 5.82415 19.0113C5.91173 18.6809 6.00014 18.3508 6.08868 18.0206C6.38169 16.923 6.66537 15.8248 6.91178 14.7157C7.28375 13.0692 8.04819 11.6939 9.43983 10.7025C10.4731 10.0507 11.4866 9.95555 12.6826 9.99209ZM11.2027 15.6243C10.8715 16.7164 10.5904 17.8184 10.3224 18.9275C10.2895 19.0618 10.2567 19.1961 10.2229 19.3345C10.1925 19.4617 10.1621 19.5889 10.1307 19.72C10.1033 19.8342 10.0759 19.9483 10.0476 20.0659C9.97309 20.4011 9.97309 20.4011 9.98842 20.8608C10.3452 20.7823 10.7019 20.7037 11.0585 20.6248C11.2103 20.5915 11.2103 20.5915 11.3652 20.5575C11.4626 20.5359 11.5601 20.5143 11.6605 20.4921C11.7501 20.4723 11.8398 20.4526 11.9322 20.4322C12.197 20.3718 12.197 20.3718 12.5384 20.2519C12.3606 19.2316 12.0834 18.2466 11.7947 17.2531C11.749 17.0944 11.7033 16.9357 11.6576 16.7769C11.5469 16.3926 11.4357 16.0084 11.3241 15.6243C11.2841 15.6243 11.244 15.6243 11.2027 15.6243ZM10.9599 24.2705C11.2541 24.5656 11.4059 24.5744 11.8108 24.6444C11.9904 24.6762 11.9904 24.6762 12.1737 24.7086C12.3618 24.7404 12.3618 24.7404 12.5536 24.7729C12.7431 24.8061 12.7431 24.8061 12.9364 24.8399C13.2489 24.8946 13.5614 24.9483 13.8742 25.0012C13.8518 24.4725 13.8518 24.4725 13.6313 24.027C12.7271 23.9736 11.8513 24.1299 10.9599 24.2705Z" fill="#F48634"/>
<path d="M18.1242 23.2964C18.4533 24.3419 18.7759 25.389 19.0881 26.4398C19.3317 27.2589 19.5818 28.0757 19.8394 28.8906C19.8846 29.0339 19.8846 29.0339 19.9307 29.1802C20.0665 29.6104 20.2033 30.0402 20.3422 30.4694C20.4089 30.6787 20.4089 30.6787 20.4769 30.8923C20.5154 31.0113 20.5539 31.1303 20.5936 31.2529C20.6743 31.5776 20.6899 31.8531 20.6742 32.1862C20.1955 32.3402 19.7091 32.3353 19.2114 32.3465C19.1177 32.349 19.0241 32.3515 18.9276 32.3541C18.6295 32.3621 18.3313 32.3693 18.0331 32.3764C17.8306 32.3817 17.6281 32.387 17.4255 32.3924C16.9298 32.4054 16.4342 32.4177 15.9385 32.4297C15.8367 32.0722 15.7356 31.7144 15.6349 31.3566C15.6059 31.2551 15.577 31.1536 15.5472 31.049C15.5198 30.9513 15.4924 30.8536 15.4641 30.7529C15.4387 30.663 15.4133 30.5731 15.3871 30.4804C15.3313 30.2377 15.3313 30.2377 15.3313 29.8724C15.1795 29.8404 15.0277 29.8084 14.8713 29.7754C14.1909 29.6236 13.525 29.4297 12.8567 29.2321C12.7289 29.1946 12.6011 29.1571 12.4694 29.1185C12.0648 28.9997 11.6603 28.8804 11.2558 28.7612C10.98 28.6801 10.7042 28.5991 10.4284 28.5181C9.75541 28.3204 9.08258 28.1223 8.40984 27.9239C8.1726 28.6048 7.97196 29.2802 7.81882 29.9847C7.7786 30.1615 7.73828 30.3383 7.69786 30.515C7.63585 30.7885 7.57452 31.062 7.51494 31.3359C7.45634 31.604 7.39495 31.8713 7.3331 32.1386C7.31612 32.2199 7.29915 32.3012 7.28166 32.385C7.14393 32.9659 6.91264 33.2607 6.46696 33.6475C6.37523 33.7335 6.28351 33.8195 6.189 33.9082C5.564 34.4742 4.92573 35.018 4.27127 35.5493C3.88607 35.8648 3.5065 36.1862 3.12764 36.5093C2.86474 36.7328 2.60163 36.956 2.33835 37.1791C2.24129 37.2613 2.24129 37.2613 2.14227 37.3452C1.95775 37.5011 1.7724 37.656 1.58701 37.8108C1.4801 37.9004 1.37318 37.99 1.26303 38.0824C1.00263 38.2751 1.00263 38.2751 0.759766 38.2751C0.949288 36.9964 1.30169 35.7595 1.63728 34.5137C1.6996 34.2809 1.76187 34.048 1.8241 33.8151C1.98691 33.2061 2.15038 32.5974 2.31398 31.9887C2.48124 31.3659 2.64788 30.7429 2.81458 30.12C3.14096 28.9007 3.46802 27.6816 3.79551 26.4626C3.72124 26.4462 3.64698 26.4299 3.57047 26.413C3.47264 26.3913 3.3748 26.3696 3.27401 26.3473C3.1772 26.3259 3.0804 26.3045 2.98066 26.2825C2.63982 26.2047 2.30318 26.1152 1.96647 26.0212C1.85236 25.9895 1.73825 25.9577 1.62068 25.9251C1.53694 25.9015 1.4532 25.878 1.36691 25.8537C1.40699 25.6528 1.44706 25.4519 1.48834 25.2448C1.52842 25.3252 1.56849 25.4056 1.60977 25.4884C3.61028 25.2802 5.59697 25.0017 7.5826 24.6816C9.1008 24.4385 9.1008 24.4385 9.86699 24.3924C9.9606 24.3845 10.0542 24.3767 10.1506 24.3686C11.2868 24.316 12.8439 24.4847 13.8742 25.0013C13.754 24.6396 13.6337 24.2779 13.5099 23.9053C14.4124 23.7129 15.3111 23.5751 16.2269 23.4638C16.3563 23.4475 16.4858 23.4312 16.6191 23.4144C17.1267 23.3516 17.6121 23.2964 18.1242 23.2964Z" fill="white"/>
<path d="M12.6827 9.99215C12.8215 9.99435 12.9603 9.99655 13.1032 9.99881C13.4413 10.0045 13.7791 10.0125 14.1171 10.0226C14.1413 10.1009 14.1655 10.1792 14.1905 10.2598C14.2668 10.5067 14.3432 10.7536 14.4196 11.0005C14.5129 11.3024 14.6062 11.6043 14.6993 11.9063C14.9793 12.8132 15.2616 13.7194 15.547 14.6247C15.7046 15.1249 15.8615 15.6252 16.0183 16.1256C16.0968 16.3754 16.1757 16.6251 16.2548 16.8747C16.3668 17.2282 16.4777 17.5819 16.5884 17.9358C16.6227 18.0432 16.6571 18.1506 16.6925 18.2613C16.723 18.3597 16.7536 18.4581 16.7851 18.5595C16.8122 18.6457 16.8394 18.7318 16.8674 18.8206C16.91 19.0342 16.91 19.0342 16.7886 19.2777C16.5191 19.3674 16.2453 19.444 15.9703 19.5146C15.8881 19.5359 15.8059 19.5572 15.7212 19.5791C15.5468 19.624 15.3724 19.6684 15.1978 19.7123C14.9312 19.7795 14.6652 19.8484 14.3991 19.9175C13.0935 20.2519 13.0935 20.2519 12.5385 20.2519C12.5024 20.1235 12.4662 19.995 12.429 19.8626C12.2952 19.3875 12.1609 18.9125 12.0264 18.4376C11.9682 18.2317 11.9101 18.0259 11.8522 17.8199C11.7691 17.5245 11.6854 17.2292 11.6017 16.934C11.5758 16.8414 11.5498 16.7488 11.5231 16.6533C11.4286 16.2261 11.4286 16.2261 11.2028 15.8679C11.1705 16.0173 11.1381 16.1666 11.1048 16.3205C10.9838 16.8749 10.858 17.4281 10.7307 17.9811C10.6763 18.2204 10.6232 18.4601 10.5714 18.7001C10.4967 19.0452 10.4174 19.389 10.3371 19.7329C10.315 19.8403 10.2928 19.9476 10.2699 20.0582C10.1994 20.3489 10.1288 20.5967 9.9885 20.8608C9.59371 21.1001 9.59371 21.1001 9.1385 21.2262C9.00316 21.2657 8.86782 21.3052 8.72838 21.3459C8.58916 21.3797 8.44995 21.4135 8.30651 21.4483C8.15311 21.4856 7.99971 21.5229 7.84167 21.5613C7.76297 21.58 7.68427 21.5987 7.60319 21.6179C7.36208 21.6753 7.12137 21.7343 6.88066 21.7934C5.59125 22.1035 5.59125 22.1035 5.00989 22.0786C5.04654 21.939 5.08318 21.7993 5.12094 21.6555C5.26051 21.1235 5.39987 20.5914 5.53915 20.0593C5.60109 19.8228 5.66307 19.5863 5.7251 19.3498C6.0494 18.113 6.37106 16.8762 6.66923 15.6328C7.17698 13.5214 7.8238 11.722 9.74565 10.5097C10.7224 10.0317 11.6091 9.95936 12.6827 9.99215Z" fill="white"/>
<path d="M18.1243 23.2964C18.4534 24.3419 18.776 25.389 19.0882 26.4398C19.3318 27.2589 19.5819 28.0757 19.8395 28.8906C19.8697 28.9861 19.8998 29.0817 19.9309 29.1802C20.0667 29.6104 20.2034 30.0402 20.3423 30.4694C20.3868 30.6089 20.4312 30.7485 20.477 30.8923C20.5155 31.0113 20.5541 31.1303 20.5937 31.2529C20.6744 31.5776 20.6901 31.8531 20.6744 32.1862C20.1956 32.3402 19.7093 32.3353 19.2115 32.3465C19.1179 32.349 19.0242 32.3515 18.9277 32.3541C18.6296 32.3621 18.3314 32.3693 18.0333 32.3764C17.8307 32.3817 17.6282 32.387 17.4256 32.3924C16.93 32.4054 16.4343 32.4177 15.9386 32.4297C15.6324 31.3482 15.3309 30.2684 15.081 29.1722C14.9028 28.3914 14.6988 27.6223 14.4734 26.8536C14.3683 26.4913 14.2722 26.1277 14.1779 25.7624C14.0059 25.121 13.7672 24.5164 13.51 23.9053C14.411 23.7092 15.3121 23.575 16.227 23.4638C16.3564 23.4475 16.4859 23.4312 16.6193 23.4144C17.1268 23.3516 17.6122 23.2964 18.1243 23.2964Z" fill="white"/>
<path d="M32.548 6.45437C32.6612 6.45385 32.7743 6.45333 32.8909 6.45279C33.1293 6.45209 33.3677 6.45203 33.6061 6.45256C33.9699 6.45294 34.3335 6.45008 34.6973 6.447C34.9295 6.44672 35.1618 6.44663 35.3941 6.44676C35.5563 6.44508 35.5563 6.44508 35.7218 6.44336C36.4933 6.44909 37.0149 6.55805 37.5792 7.12768C37.832 7.52116 37.9764 7.91541 38.1091 8.36C38.1354 8.44448 38.1617 8.52896 38.1887 8.616C38.2436 8.79358 38.2979 8.97136 38.3515 9.14933C38.4336 9.42133 38.5179 9.69258 38.6025 9.96381C38.6557 10.137 38.7088 10.3102 38.7618 10.4835C38.7994 10.6047 38.7994 10.6047 38.8377 10.7284C38.9568 11.1264 39.0104 11.4281 39.0104 11.8492C39.146 11.8489 39.2817 11.8485 39.4214 11.8482C42.7212 11.8401 46.021 11.8341 49.3208 11.8303C50.9165 11.8284 52.5123 11.8258 54.108 11.8217C55.4988 11.818 56.8895 11.8157 58.2803 11.8148C59.0168 11.8144 59.7533 11.8132 60.4897 11.8106C61.1829 11.8081 61.8761 11.8073 62.5693 11.8079C62.8237 11.8078 63.0781 11.8071 63.3325 11.8057C63.68 11.8039 64.0274 11.8043 64.3749 11.8053C64.4754 11.8042 64.5759 11.8032 64.6795 11.8021C65.3195 11.807 65.7633 11.9146 66.3321 12.2146C66.7948 12.7095 66.8456 13.1792 66.8373 13.8468C66.8018 14.4223 66.6838 14.9796 66.5683 15.5435C66.5287 15.7431 66.5287 15.7431 66.4884 15.9468C66.4019 16.3824 66.3139 16.8178 66.2258 17.2531C66.1342 17.7107 66.0429 18.1683 65.9516 18.6259C65.889 18.9396 65.8263 19.2533 65.7634 19.5669C65.5493 20.6367 65.3426 21.7077 65.1401 22.7797C65.0597 23.2022 64.9792 23.6247 64.8987 24.0472C64.8477 24.3162 64.7972 24.5853 64.7472 24.8544C64.6774 25.2296 64.6058 25.6045 64.5339 25.9792C64.514 26.0884 64.4942 26.1976 64.4738 26.3101C64.1633 27.9007 64.1633 27.9007 63.5138 28.3551C63.1449 28.5485 62.8653 28.6074 62.4534 28.6585C62.3109 28.6769 62.1683 28.6953 62.0214 28.7142C61.7905 28.7417 61.7905 28.7417 61.555 28.7698C61.3917 28.7903 61.2284 28.8109 61.0652 28.8317C60.6384 28.8855 60.2115 28.9376 59.7845 28.9892C59.387 29.0375 58.9897 29.0872 58.5924 29.1368C57.7131 29.246 56.8336 29.3526 55.954 29.4587C55.5171 29.5115 55.0803 29.5645 54.6435 29.6175C53.8219 29.7171 53.0004 29.8166 52.1788 29.9159C50.7016 30.0945 49.2245 30.2734 47.7474 30.4525C47.2309 30.5151 46.7145 30.5776 46.198 30.64C45.8031 30.6877 45.4082 30.7356 45.0134 30.7834C44.8723 30.8004 44.7311 30.8174 44.5858 30.8349C43.9405 30.9132 43.2962 30.9942 42.6533 31.0901C42.6533 31.4116 42.6533 31.7331 42.6533 32.0643C43.1914 32.3337 43.6938 32.3444 44.2826 32.3369C44.3836 32.3362 44.4846 32.3355 44.5886 32.3347C45.7 32.3185 46.8033 32.2218 47.9096 32.1205C52.1571 31.735 56.4265 31.4254 60.6932 31.4174C60.787 31.417 60.8807 31.4165 60.9774 31.4161C61.237 31.4154 61.4965 31.4166 61.7562 31.4188C61.8995 31.4199 62.0428 31.4209 62.1904 31.422C62.7231 31.4692 63.057 31.5936 63.4557 31.9502C63.7365 32.4404 63.7775 32.851 63.6606 33.4039C63.3358 33.8382 63.0945 34.0433 62.5677 34.1346C62.2971 34.1486 62.0262 34.1563 61.7552 34.1602C61.5844 34.1634 61.4136 34.1666 61.2428 34.1699C61.1514 34.1716 61.0599 34.1732 60.9657 34.1748C58.9974 34.2117 57.0343 34.3043 55.0695 34.4238C54.8753 34.4356 54.8753 34.4356 54.6773 34.4476C53.8801 34.4963 53.083 34.5461 52.286 34.5963C51.2111 34.6638 50.1361 34.7297 49.0611 34.7959C48.693 34.8187 48.325 34.8418 47.9569 34.8649C47.3931 34.9003 46.8293 34.934 46.2653 34.9669C45.9224 34.9876 45.5797 35.0103 45.2369 35.033C45.0116 35.0466 44.7863 35.0601 44.561 35.0736C44.4602 35.0808 44.3593 35.088 44.2554 35.0954C42.9747 35.1669 41.9263 34.8607 40.8622 34.1574C40.1576 33.4704 39.9642 32.7123 39.9439 31.7523C39.9477 30.8247 40.1789 30.086 40.589 29.2634C40.593 28.3342 40.3176 27.4988 40.0198 26.63C39.9185 26.3242 39.8178 26.0183 39.7181 25.7119C39.6773 25.5866 39.6773 25.5866 39.6357 25.4588C39.2619 24.2994 38.93 23.1274 38.593 21.9568C37.9084 19.583 37.2077 17.2144 36.4983 14.848C36.4743 14.7679 36.4503 14.6878 36.4255 14.6052C36.1852 13.8034 35.9447 13.0017 35.7039 12.2001C35.6679 12.0794 35.6318 11.9587 35.5947 11.8343C35.5244 11.6014 35.4528 11.3688 35.3798 11.1367C35.3464 11.0292 35.3129 10.9217 35.2784 10.811C35.2487 10.7172 35.219 10.6235 35.1884 10.5269C35.1246 10.2661 35.1246 10.2661 35.1246 9.779C35.0157 9.78091 34.9067 9.78282 34.7945 9.7848C34.3862 9.79106 33.978 9.79562 33.5697 9.79907C33.3938 9.80089 33.2178 9.80338 33.0419 9.80656C31.2101 9.83884 31.2101 9.83884 30.3889 9.41366C30.0115 9.03521 29.9918 8.65816 29.9639 8.14261C29.9771 7.69555 30.0091 7.39064 30.2826 7.03139C30.9728 6.44454 31.6845 6.45348 32.548 6.45437ZM40.1032 15.1372C40.2507 15.8766 40.3865 16.539 40.6089 17.2464C40.6527 17.3868 40.6964 17.5272 40.7415 17.6718C40.8238 17.9317 40.8238 17.9317 40.9077 18.1969C41.083 18.7545 41.2583 19.3121 41.439 19.8866C43.4025 19.8866 45.366 19.8866 47.389 19.8866C47.389 18.3193 47.389 16.752 47.389 15.1372C44.9847 15.1372 42.5804 15.1372 40.1032 15.1372ZM49.089 15.1372C49.089 16.7045 49.089 18.2718 49.089 19.8866C51.0926 19.8866 53.0962 19.8866 55.1605 19.8866C55.1605 18.3193 55.1605 16.752 55.1605 15.1372C53.1569 15.1372 51.1533 15.1372 49.089 15.1372ZM56.8605 15.1372C56.8605 16.7045 56.8605 18.2718 56.8605 19.8866C58.6638 19.8866 60.467 19.8866 62.3249 19.8866C62.4651 19.1933 62.6054 18.5001 62.7499 17.7859C62.8164 17.4588 62.8164 17.4588 62.8844 17.125C62.9193 16.9514 62.9541 16.7779 62.9889 16.6043C63.0073 16.5147 63.0257 16.4252 63.0446 16.3329C63.1265 15.9224 63.1749 15.5581 63.1749 15.1372C61.0912 15.1372 59.0074 15.1372 56.8605 15.1372ZM41.9247 21.4697C42.1436 22.348 42.3635 23.2183 42.6167 24.086C42.6459 24.1866 42.675 24.2873 42.705 24.391C42.7963 24.7061 42.8879 25.0211 42.9796 25.3361C43.0423 25.5524 43.105 25.7687 43.1677 25.985C43.3197 26.5096 43.4721 27.0341 43.6247 27.5586C44.8853 27.5586 46.139 27.3567 47.389 27.1932C47.389 25.3044 47.389 23.4157 47.389 21.4697C45.5858 21.4697 43.7826 21.4697 41.9247 21.4697ZM49.089 21.4697C49.089 23.2781 49.089 25.0865 49.089 26.9497C49.9652 26.8764 50.8287 26.8009 51.6979 26.6828C51.7871 26.671 51.8764 26.6591 51.9683 26.6469C52.2937 26.6036 52.6191 26.5597 52.9444 26.5158C53.6757 26.4179 54.4071 26.3199 55.1605 26.219C55.1605 24.6517 55.1605 23.0844 55.1605 21.4697C53.1569 21.4697 51.1533 21.4697 49.089 21.4697ZM56.8605 21.4697C56.8605 22.9566 56.8605 24.4435 56.8605 25.9754C58.4708 25.8889 58.4708 25.8889 60.0708 25.7319C60.1579 25.7218 60.2451 25.7118 60.3348 25.7014C60.7982 25.649 60.7982 25.649 61.232 25.4883C61.3354 25.1567 61.3354 25.1567 61.4151 24.752C61.4472 24.6013 61.4793 24.4506 61.5123 24.2953C61.5286 24.2163 61.5449 24.1372 61.5616 24.0558C61.611 23.8163 61.6622 23.5773 61.7135 23.3382C61.8482 22.6967 61.9606 22.128 61.9606 21.4697C60.2776 21.4697 58.5946 21.4697 56.8605 21.4697Z" fill="white"/>
<path d="M44.2314 36.5706C44.9054 37.0685 45.3563 37.7046 45.5671 38.519C45.6782 39.4895 45.6092 40.2779 45.0193 41.0835C44.4697 41.7586 43.8895 42.2416 43.0171 42.4159C41.9204 42.5216 41.1562 42.3084 40.247 41.7005C39.491 40.964 39.2612 40.15 39.2148 39.1203C39.2959 38.0957 39.702 37.3789 40.4671 36.6924C41.6774 35.9066 42.9687 35.862 44.2314 36.5706Z" fill="#F0E9E9"/>
<path d="M61.4001 36.3928C62.1671 36.821 62.7501 37.5496 63.0047 38.394C63.2077 39.4177 62.9868 40.298 62.426 41.1764C61.9296 41.8161 61.2886 42.2373 60.5036 42.4156C59.4087 42.5284 58.658 42.3005 57.741 41.7153C57.0358 41.0081 56.7217 40.2835 56.7013 39.2874C56.7067 38.5372 56.7971 38.0356 57.225 37.4227C57.3264 37.2607 57.3264 37.2607 57.4299 37.0954C58.5413 35.9808 59.9774 35.8209 61.4001 36.3928Z" fill="#F0E9E9"/>
<path d="M12.6598 24.6358C12.784 24.6567 12.9081 24.6775 13.036 24.6991C13.9018 24.8764 13.9018 24.8764 14.1514 25.2084C14.2509 25.4639 14.3097 25.7059 14.3599 25.9753C14.401 26.129 14.4422 26.2827 14.4846 26.4411C14.5211 26.5963 14.5576 26.7516 14.5951 26.9115C14.7797 27.6834 14.9965 28.4384 15.2421 29.1934C15.3313 29.5069 15.3313 29.5069 15.3313 29.8722C14.4938 29.6957 13.6773 29.4746 12.8567 29.232C12.7289 29.1945 12.601 29.157 12.4693 29.1183C12.0647 28.9996 11.6603 28.8803 11.2558 28.761C10.98 28.68 10.7042 28.5989 10.4283 28.5179C9.75538 28.3203 9.08255 28.1222 8.4098 27.9238C8.30493 27.4523 8.29647 27.1414 8.40933 26.6694C8.43711 26.5505 8.4649 26.4316 8.49352 26.309C8.5235 26.1864 8.55347 26.0637 8.58436 25.9373C8.61386 25.8123 8.64337 25.6872 8.67377 25.5584C8.74658 25.2506 8.82053 24.9431 8.89552 24.6358C8.81538 24.5956 8.73523 24.5554 8.65266 24.514C8.8271 24.4928 9.00169 24.4727 9.17633 24.4531C9.27353 24.4418 9.37074 24.4305 9.47089 24.4189C10.5675 24.3451 11.5826 24.4152 12.6598 24.6358Z" fill="#EAD9D2"/>
<path d="M134.036 14.9872C135.292 15.683 135.815 17.5277 136.375 18.7756C136.461 18.966 136.547 19.1563 136.633 19.3466C136.841 19.8085 137.049 20.2708 137.257 20.7332C137.417 21.0901 137.578 21.4467 137.738 21.8034C137.98 22.3413 138.221 22.8797 138.462 23.4184C138.502 23.4184 138.542 23.4184 138.583 23.4184C138.583 23.3221 138.582 23.2258 138.582 23.1266C138.577 22.2182 138.573 21.3098 138.571 20.4014C138.569 19.9344 138.568 19.4674 138.565 19.0004C138.562 18.5496 138.561 18.0987 138.56 17.6478C138.56 17.476 138.559 17.3042 138.557 17.1324C138.556 16.8913 138.556 16.6503 138.556 16.4092C138.555 16.2721 138.555 16.135 138.554 15.9937C138.584 15.6162 138.654 15.3516 138.826 15.0157C139.185 14.8359 139.512 14.8685 139.911 14.8635C140.063 14.8604 140.214 14.8572 140.37 14.854C140.769 14.894 140.769 14.894 140.997 15.0557C141.301 15.5107 141.271 15.9431 141.272 16.474C141.273 16.56 141.273 16.646 141.273 16.7346C141.275 17.0193 141.275 17.304 141.275 17.5888C141.275 17.7874 141.276 17.986 141.276 18.1846C141.277 18.6015 141.277 19.0185 141.277 19.4354C141.277 19.967 141.279 20.4986 141.281 21.0302C141.282 21.4409 141.282 21.8516 141.282 22.2623C141.283 22.4581 141.283 22.6539 141.284 22.8497C141.296 25.5052 141.296 25.5052 140.708 26.2269C140.199 26.6224 139.793 26.6147 139.168 26.6227C139.032 26.628 139.032 26.628 138.894 26.6334C138.251 26.6407 137.737 26.5437 137.247 26.0975C136.27 24.9448 135.755 23.3728 135.16 22.0027C135.051 21.7541 134.942 21.5054 134.833 21.2568C134.588 20.6978 134.344 20.1384 134.101 19.5785C134.011 19.3733 133.919 19.1687 133.827 18.9646C133.782 18.8663 133.738 18.7679 133.692 18.6665C133.652 18.579 133.611 18.4914 133.57 18.4012C133.483 18.182 133.483 18.182 133.483 17.9384C133.403 17.9384 133.323 17.9384 133.24 17.9384C133.241 18.0413 133.242 18.1443 133.243 18.2503C133.25 19.2197 133.256 20.1891 133.259 21.1586C133.261 21.657 133.264 22.1554 133.268 22.6538C133.272 23.1346 133.274 23.6155 133.275 24.0963C133.275 24.2799 133.277 24.4635 133.279 24.6471C133.281 24.904 133.282 25.1608 133.282 25.4177C133.282 25.564 133.283 25.7103 133.284 25.861C133.24 26.2193 133.24 26.2193 133.082 26.449C132.738 26.6753 132.362 26.6371 131.965 26.6303C131.883 26.6317 131.801 26.6331 131.716 26.6346C131.393 26.6327 131.129 26.6305 130.849 26.458C130.603 26.0878 130.64 25.7048 130.643 25.2747C130.642 25.1786 130.642 25.0825 130.641 24.9835C130.64 24.6654 130.641 24.3473 130.642 24.0292C130.642 23.8079 130.641 23.5866 130.641 23.3652C130.64 22.9009 130.641 22.4365 130.643 21.9722C130.645 21.3783 130.644 20.7844 130.641 20.1905C130.64 19.7332 130.641 19.2758 130.641 18.8184C130.642 18.5995 130.641 18.3807 130.641 18.1618C130.64 17.8549 130.641 17.5481 130.643 17.2412C130.642 17.1514 130.642 17.0617 130.641 16.9692C130.648 16.3445 130.773 15.9269 131.055 15.3811C131.794 14.6862 133.104 14.7071 134.036 14.9872Z" fill="white"/>
<path d="M93.7162 14.8613C93.8008 14.8611 93.8853 14.8609 93.9725 14.8606C94.1504 14.8605 94.3284 14.8609 94.5064 14.8619C94.7744 14.8632 95.0424 14.8619 95.3104 14.8604C96.6581 14.859 97.9416 14.9009 99.1179 15.6243C99.2256 15.6897 99.3333 15.755 99.4443 15.8222C100.176 16.5755 100.391 17.3512 100.393 18.3796C100.37 19.3965 100.282 20.107 99.5277 20.838C99.0523 21.2615 98.5017 21.4116 97.9036 21.5915C97.9556 21.6816 98.0076 21.7718 98.0612 21.8647C98.257 22.2044 98.4528 22.5442 98.6485 22.884C98.7326 23.0301 98.8168 23.1762 98.9011 23.3222C99.1027 23.672 99.3038 24.022 99.5037 24.3728C99.641 24.6115 99.7807 24.8489 99.9241 25.0841C99.9807 25.1787 100.037 25.2733 100.096 25.3709C100.145 25.4506 100.194 25.5304 100.245 25.6125C100.362 25.9344 100.306 26.1387 100.211 26.4626C99.9385 26.7357 99.324 26.6184 98.9585 26.6224C98.8531 26.6259 98.7477 26.6295 98.6391 26.6331C98.5371 26.6341 98.4351 26.6351 98.33 26.6362C98.2367 26.638 98.1434 26.6398 98.0472 26.6416C97.6648 26.559 97.5418 26.4018 97.2965 26.0972C97.1195 25.7932 96.9555 25.4927 96.7975 25.1791C96.7523 25.0912 96.7072 25.0033 96.6607 24.9127C96.566 24.7277 96.4717 24.5424 96.3779 24.3569C96.2338 24.0723 96.0881 23.7884 95.9422 23.5047C95.8503 23.3246 95.7584 23.1445 95.6667 22.9643C95.623 22.8792 95.5794 22.7941 95.5344 22.7064C95.2322 22.1068 95.2322 22.1068 95.2322 21.835C94.7112 21.835 94.1903 21.835 93.6536 21.835C93.6549 21.9536 93.6561 22.0721 93.6574 22.1943C93.6618 22.6357 93.6646 23.0771 93.6669 23.5185C93.6681 23.7093 93.6698 23.9 93.6719 24.0908C93.6749 24.3656 93.6762 24.6403 93.6773 24.9151C93.6786 24.9999 93.6798 25.0847 93.6811 25.172C93.6812 25.6549 93.6394 26.0338 93.4107 26.4626C93.0442 26.6464 92.6665 26.6118 92.2647 26.6148C92.182 26.6173 92.0993 26.6198 92.014 26.6224C91.415 26.6271 91.415 26.6271 91.1406 26.4561C90.8991 26.0948 90.9314 25.7283 90.935 25.3079C90.9344 25.2154 90.9337 25.1229 90.9331 25.0276C90.9315 24.7213 90.9325 24.4151 90.9337 24.1088C90.9335 23.8957 90.9331 23.6826 90.9327 23.4695C90.9322 23.0223 90.9329 22.5751 90.9346 22.128C90.9367 21.5562 90.9355 20.9845 90.9333 20.4127C90.932 19.9722 90.9324 19.5318 90.9334 19.0913C90.9336 18.8806 90.9333 18.6699 90.9325 18.4592C90.9315 18.1637 90.933 17.8682 90.935 17.5727C90.9343 17.4864 90.9335 17.4 90.9328 17.3111C90.9424 16.5443 91.141 16.0037 91.6196 15.4036C92.2475 14.9027 92.9353 14.8627 93.7162 14.8613ZM93.6536 17.3292C93.6199 17.5889 93.6199 17.5889 93.6299 17.8858C93.6306 17.9949 93.6314 18.104 93.6322 18.2164C93.6343 18.3305 93.6363 18.4447 93.6384 18.5622C93.6395 18.6773 93.6406 18.7924 93.6417 18.9109C93.6446 19.1956 93.6486 19.4802 93.6536 19.7648C94.0811 19.7719 94.5086 19.7762 94.9362 19.78C95.0565 19.7821 95.1768 19.7841 95.3007 19.7862C96.0912 19.7915 96.7971 19.7906 97.4634 19.3157C97.7347 18.9286 97.7741 18.6531 97.7822 18.1817C97.6364 17.7343 97.5148 17.5183 97.1281 17.2498C96.5029 17.016 95.9239 17.0373 95.2625 17.0476C95.1346 17.0472 95.0068 17.0468 94.875 17.0464C94.1969 17.0058 94.1969 17.0058 93.6536 17.3292Z" fill="white"/>
<path d="M125.468 15.2588C126.602 16.3524 126.937 18.1871 127.372 19.6456C127.424 19.8161 127.475 19.9865 127.526 20.1569C127.632 20.5107 127.737 20.8646 127.842 21.2186C127.977 21.6707 128.113 22.1221 128.25 22.5733C128.356 22.9236 128.461 23.2743 128.565 23.6252C128.614 23.7919 128.665 23.9584 128.715 24.1248C128.786 24.3569 128.855 24.5899 128.923 24.8228C128.982 25.0205 128.982 25.0205 129.042 25.2221C129.122 25.6695 129.082 26.0193 128.99 26.4623C128.733 26.7204 128.212 26.6289 127.859 26.6374C127.765 26.643 127.671 26.6485 127.575 26.6543C127.301 26.6597 127.07 26.6519 126.804 26.5841C126.369 26.1147 126.211 25.5972 126.045 24.9858C126.004 24.8398 125.964 24.6938 125.922 24.5434C125.833 24.1485 125.833 24.1485 125.833 23.6614C124.19 23.6614 122.547 23.6614 120.854 23.6614C120.694 24.3044 120.534 24.9474 120.368 25.6099C120.004 26.4623 120.004 26.4623 119.761 26.5841C119.436 26.5992 119.115 26.6066 118.79 26.6069C118.7 26.6084 118.611 26.6099 118.518 26.6115C118.285 26.6121 118.051 26.599 117.818 26.5841C117.575 26.3405 117.575 26.3405 117.546 25.9527C117.576 25.4782 117.663 25.0853 117.798 24.6301C117.822 24.549 117.845 24.4678 117.87 24.3843C117.948 24.1182 118.028 23.8527 118.108 23.5872C118.163 23.4005 118.219 23.2139 118.274 23.0271C118.39 22.6363 118.507 22.2457 118.625 21.8553C118.775 21.3587 118.922 20.8614 119.068 20.3639C119.182 19.978 119.298 19.5926 119.413 19.2073C119.468 19.0243 119.522 18.8412 119.576 18.6579C120.428 15.767 120.428 15.767 121.551 15.0257C122.733 14.4558 124.396 14.4482 125.468 15.2588ZM122.856 17.214C122.51 17.6243 122.398 17.9376 122.256 18.4535C122.232 18.5362 122.209 18.6188 122.185 18.704C122.111 18.9657 122.04 19.228 121.97 19.4905C121.92 19.6687 121.87 19.8467 121.82 20.0247C121.577 20.7391 121.577 20.7391 121.461 21.4694C122.663 21.4694 123.866 21.4694 125.104 21.4694C124.931 20.6035 124.745 19.7793 124.505 18.9349C124.474 18.8236 124.443 18.7122 124.412 18.5974C124.186 17.7983 124.186 17.7983 123.768 17.0854C123.338 16.8808 123.227 16.9094 122.856 17.214Z" fill="white"/>
<path d="M75.5607 15.2588C76.6942 16.3524 77.0293 18.1871 77.4647 19.6456C77.5158 19.8161 77.567 19.9865 77.6181 20.1569C77.7241 20.5107 77.8295 20.8646 77.9346 21.2186C78.069 21.6707 78.2055 22.1221 78.3426 22.5733C78.4485 22.9236 78.5529 23.2743 78.6569 23.6252C78.7066 23.7919 78.7569 23.9584 78.8077 24.1248C78.8785 24.3569 78.9469 24.5899 79.0152 24.8228C79.0743 25.0205 79.0743 25.0205 79.1347 25.2221C79.2142 25.6695 79.1744 26.0193 79.0821 26.4623C78.8248 26.7204 78.3042 26.6289 77.9513 26.6374C77.8575 26.643 77.7637 26.6485 77.667 26.6543C77.3931 26.6597 77.162 26.6519 76.8964 26.5841C76.4609 26.1147 76.3034 25.5972 76.1375 24.9858C76.0968 24.8398 76.0561 24.6938 76.0142 24.5434C75.925 24.1485 75.925 24.1485 75.925 23.6614C74.282 23.6614 72.6391 23.6614 70.9464 23.6614C70.7861 24.3044 70.6258 24.9474 70.4606 25.6099C70.0964 26.4623 70.0964 26.4623 69.8535 26.5841C69.5282 26.5992 69.2074 26.6066 68.8821 26.6069C68.7925 26.6084 68.703 26.6099 68.6107 26.6115C68.3772 26.6121 68.1437 26.599 67.9106 26.5841C67.6678 26.3405 67.6678 26.3405 67.6387 25.9527C67.6684 25.4782 67.7554 25.0853 67.8903 24.6301C67.914 24.549 67.9377 24.4678 67.9621 24.3843C68.0402 24.1182 68.12 23.8527 68.2 23.5872C68.2554 23.4005 68.3109 23.2139 68.3662 23.0271C68.4825 22.6363 68.5995 22.2457 68.7172 21.8553C68.8668 21.3587 69.014 20.8614 69.1605 20.3639C69.2744 19.978 69.3898 19.5926 69.5056 19.2073C69.5604 19.0243 69.6147 18.8412 69.6685 18.6579C70.5199 15.767 70.5199 15.767 71.6436 15.0257C72.8251 14.4558 74.4878 14.4482 75.5607 15.2588ZM72.9487 17.214C72.6027 17.6243 72.4906 17.9376 72.348 18.4535C72.3246 18.5362 72.3012 18.6188 72.2771 18.704C72.2035 18.9657 72.1327 19.228 72.062 19.4905C72.0123 19.6687 71.9624 19.8467 71.9123 20.0247C71.6688 20.7391 71.6688 20.7391 71.5535 21.4694C72.7557 21.4694 73.9578 21.4694 75.1964 21.4694C75.0237 20.6035 74.8375 19.7793 74.5968 18.9349C74.5662 18.8236 74.5356 18.7122 74.5041 18.5974C74.2781 17.7983 74.2781 17.7983 73.8607 17.0854C73.43 16.8808 73.3196 16.9094 72.9487 17.214Z" fill="white"/>
<path d="M84.0553 14.8567C84.2625 14.8559 84.2625 14.8559 84.4738 14.8551C84.7644 14.8544 85.0551 14.8544 85.3458 14.8549C85.7916 14.8553 86.2373 14.8524 86.6831 14.8493C86.9658 14.8491 87.2486 14.849 87.5313 14.8491C87.6648 14.848 87.7984 14.8469 87.936 14.8457C88.1215 14.8468 88.1215 14.8468 88.3107 14.848C88.4195 14.8479 88.5283 14.8478 88.6404 14.8478C88.9757 14.9028 89.0834 14.9864 89.2825 15.2587C89.3309 15.6012 89.3309 15.6012 89.328 15.9893C89.3294 16.1815 89.3294 16.1815 89.3309 16.3775C89.2758 16.7676 89.22 16.8482 88.9182 17.0853C88.5501 17.1228 88.2056 17.139 87.8372 17.1391C87.7311 17.1407 87.6249 17.1423 87.5156 17.144C87.1761 17.149 86.8367 17.1516 86.4972 17.1538C86.1582 17.1567 85.8192 17.1602 85.4802 17.165C85.2692 17.168 85.0582 17.1698 84.8473 17.1703C84.7512 17.1716 84.6552 17.1728 84.5563 17.1741C84.4721 17.1746 84.388 17.1751 84.3014 17.1757C84.0074 17.2007 84.0074 17.2007 83.5753 17.4507C83.5352 18.174 83.4952 18.8974 83.4539 19.6427C83.7901 19.637 84.1263 19.6314 84.4727 19.6255C84.7987 19.6217 85.1246 19.6188 85.4505 19.6159C85.6769 19.6135 85.9033 19.6101 86.1297 19.6059C86.4552 19.6 86.7807 19.5973 87.1063 19.5951C87.2073 19.5926 87.3084 19.5901 87.4126 19.5875C88.1144 19.5872 88.1144 19.5872 88.4964 19.8687C88.7242 20.201 88.7366 20.4065 88.7285 20.8072C88.7283 20.9229 88.7282 21.0386 88.728 21.1578C88.6754 21.4693 88.6754 21.4693 88.5202 21.6858C88.0188 22.0427 87.4118 21.9723 86.8217 21.9683C86.7253 21.9682 86.629 21.968 86.5297 21.9678C86.2229 21.9671 85.9161 21.9656 85.6093 21.9641C85.4009 21.9635 85.1925 21.9629 84.9841 21.9624C84.474 21.9611 83.9639 21.959 83.4539 21.9565C83.4551 22.0713 83.4564 22.1862 83.4577 22.3045C83.4619 22.7323 83.4649 23.1601 83.4672 23.5879C83.4684 23.7728 83.4701 23.9576 83.4722 24.1425C83.4752 24.4088 83.4765 24.6751 83.4776 24.9414C83.4789 25.1015 83.4801 25.2616 83.4814 25.4265C83.4551 25.8338 83.4009 26.1038 83.211 26.4622C82.8445 26.646 82.4668 26.6114 82.065 26.6145C81.9823 26.617 81.8996 26.6195 81.8143 26.6221C81.2153 26.6268 81.2153 26.6268 80.9409 26.4558C80.6994 26.0944 80.7317 25.728 80.7353 25.3076C80.7346 25.2151 80.734 25.1226 80.7333 25.0272C80.7317 24.721 80.7328 24.4148 80.734 24.1085C80.7338 23.8954 80.7334 23.6822 80.733 23.4691C80.7324 23.0219 80.7332 22.5748 80.7349 22.1276C80.737 21.5559 80.7358 20.9841 80.7336 20.4124C80.7323 19.9719 80.7327 19.5314 80.7337 19.091C80.7339 18.8803 80.7336 18.6696 80.7328 18.4589C80.7318 18.1633 80.7333 17.8679 80.7353 17.5723C80.7345 17.486 80.7338 17.3997 80.733 17.3108C80.7427 16.5439 80.9412 16.0034 81.4199 15.4033C82.1956 14.7845 83.1076 14.8559 84.0553 14.8567Z" fill="white"/>
<path d="M115.997 15.1373C116.365 15.4955 116.382 15.8078 116.399 16.3018C116.397 16.7073 116.336 16.9837 116.119 17.3293C115.759 17.4634 115.517 17.4518 115.137 17.394C114.593 17.32 114.063 17.2978 113.515 17.2912C113.417 17.2877 113.319 17.2841 113.218 17.2805C112.369 17.2716 111.724 17.4924 111.102 18.0828C110.596 18.9286 110.474 19.766 110.487 20.739C110.486 20.8411 110.484 20.9431 110.483 21.0482C110.487 21.9199 110.639 22.7579 111.178 23.4638C111.952 24.2223 112.768 24.2539 113.811 24.2706C114.14 24.2462 114.457 24.1971 114.783 24.1488C114.998 24.1314 115.213 24.1188 115.428 24.1108C115.528 24.1062 115.627 24.1017 115.73 24.097C115.997 24.1488 115.997 24.1488 116.212 24.361C116.458 24.814 116.423 25.2299 116.361 25.7319C116.248 26.082 116.248 26.082 115.997 26.3408C114.439 27.0966 112.376 27.0076 110.776 26.4626C110.07 26.1265 109.465 25.7211 108.954 25.123C108.895 25.0546 108.835 24.9862 108.774 24.9156C107.475 23.3263 107.524 21.3484 107.619 19.3995C107.785 18.0264 108.404 16.7794 109.415 15.8337C111.172 14.4612 113.974 14.2481 115.997 15.1373Z" fill="white"/>
<path d="M71.5839 29.4082C72.1004 29.7496 72.2765 30.1519 72.4127 30.7429C72.453 30.9404 72.4921 31.1382 72.5302 31.3362C72.5513 31.4407 72.5723 31.5453 72.594 31.653C72.6606 31.9853 72.7256 32.3179 72.7906 32.6505C72.8357 32.8766 72.8808 33.1026 72.926 33.3286C73.0364 33.8812 73.1454 34.4341 73.2536 34.9871C73.2936 34.9871 73.3337 34.9871 73.375 34.9871C73.3982 34.8637 73.4214 34.7404 73.4453 34.6133C73.5327 34.1507 73.6218 33.6885 73.7115 33.2263C73.7499 33.0272 73.7878 32.8279 73.8252 32.6286C74.3377 29.9032 74.3377 29.9032 75.0522 29.3777C75.6747 29.1941 76.1216 29.2159 76.7447 29.393C77.2242 29.6796 77.3451 29.9669 77.5036 30.4813C77.5825 30.8628 77.6291 31.245 77.672 31.6321C77.685 31.7409 77.6979 31.8498 77.7113 31.9619C77.7383 32.1914 77.7647 32.421 77.7905 32.6506C77.8296 32.9976 77.871 33.3444 77.9127 33.6911C78.1967 36.1068 78.1967 36.1068 78.1108 37.0573C77.9893 37.1791 77.9893 37.1791 77.6587 37.191C77.458 37.1889 77.458 37.1889 77.2532 37.1867C77.119 37.1856 76.9849 37.1845 76.8467 37.1834C76.7429 37.182 76.6391 37.1806 76.5322 37.1791C76.3226 36.5206 76.2241 35.8916 76.1593 35.2045C76.1489 35.1003 76.1385 34.9961 76.1277 34.8887C76.0948 34.5588 76.063 34.2288 76.0313 33.8987C76.0091 33.6738 75.9868 33.4489 75.9644 33.224C75.91 32.6752 75.8565 32.1263 75.8036 31.5773C75.6032 32.35 75.4177 33.1238 75.2572 33.9059C75.2271 34.0523 75.1971 34.1986 75.1661 34.3495C75.1047 34.6509 75.044 34.9525 74.9839 35.2542C74.9539 35.3995 74.9238 35.5448 74.8929 35.6945C74.8666 35.8248 74.8403 35.9552 74.8132 36.0895C74.7055 36.4666 74.5774 36.7412 74.3464 37.0573C73.9823 37.1791 73.711 37.2072 73.3295 37.2172C73.159 37.224 73.159 37.224 72.9851 37.231C72.535 37.1621 72.3515 37.0224 72.0393 36.692C71.8951 36.3253 71.8951 36.3253 71.7964 35.8776C71.7779 35.7962 71.7594 35.7147 71.7403 35.6307C71.6747 35.3356 71.6138 35.0398 71.5536 34.7436C71.5272 34.6152 71.5008 34.4869 71.4736 34.3546C71.2928 33.4704 71.1176 32.5852 70.9464 31.6991C70.9063 31.6991 70.8663 31.6991 70.825 31.6991C70.8115 31.8392 70.7981 31.9792 70.7842 32.1235C70.7339 32.6451 70.6825 33.1666 70.6308 33.6881C70.6086 33.9135 70.5867 34.1388 70.5651 34.3642C70.5339 34.6889 70.5017 35.0136 70.4692 35.3382C70.4599 35.4383 70.4505 35.5384 70.4408 35.6416C70.3853 36.1852 70.2934 36.6646 70.0964 37.1791C69.8561 37.1824 69.6157 37.1848 69.3754 37.1867C69.2416 37.1881 69.1077 37.1896 68.9699 37.191C68.6392 37.1791 68.6392 37.1791 68.5178 37.0573C68.4064 35.8258 68.6103 34.5685 68.7572 33.3474C68.7988 32.9994 68.838 32.6513 68.8771 32.303C68.9035 32.0793 68.9299 31.8557 68.9566 31.6321C68.968 31.5292 68.9794 31.4263 68.9911 31.3203C69.0687 30.6961 69.1927 30.1864 69.4892 29.6289C70.1914 29.2091 70.8148 29.1263 71.5839 29.4082Z" fill="white"/>
<path d="M138.826 29.3547C138.946 29.3522 139.067 29.3497 139.191 29.3471C140.125 29.3422 141.282 29.3717 141.998 30.0549C142.451 30.661 142.423 31.3346 142.347 32.0642C142.185 32.5 141.948 32.8303 141.619 33.1602C141.788 33.262 141.788 33.262 141.96 33.3657C142.358 33.6554 142.502 33.8189 142.712 34.2562C142.76 34.6406 142.76 34.6406 142.757 35.0478C142.759 35.2494 142.759 35.2494 142.76 35.455C142.69 36.0142 142.472 36.3271 142.074 36.7146C141.227 37.2746 140.281 37.2205 139.303 37.2174C139.053 37.217 138.804 37.2198 138.554 37.2229C138.395 37.223 138.237 37.2231 138.074 37.2232C137.929 37.2235 137.785 37.2239 137.637 37.2243C137.188 37.172 136.981 37.1124 136.64 36.8136C136.248 36.141 136.223 35.4423 136.232 34.682C136.232 34.5746 136.232 34.4671 136.231 34.3565C136.232 34.1308 136.233 33.9051 136.235 33.6795C136.238 33.3358 136.237 32.9923 136.237 32.6486C136.237 32.4283 136.238 32.208 136.239 31.9877C136.239 31.8859 136.239 31.7841 136.239 31.6793C136.246 31.0733 136.308 30.5645 136.519 29.994C137.225 29.3041 137.896 29.3594 138.826 29.3547ZM138.097 30.9682C138.088 31.2345 138.087 31.501 138.09 31.7674C138.091 31.9132 138.092 32.0591 138.093 32.2093C138.094 32.3222 138.096 32.4351 138.097 32.5514C139.276 32.5973 139.276 32.5973 140.404 32.3078C140.69 31.9554 140.69 31.9554 140.632 31.5086C140.573 31.0948 140.573 31.0948 140.335 30.9435C139.926 30.8088 139.532 30.8159 139.107 30.8236C139.023 30.8237 138.939 30.8238 138.853 30.8239C138.44 30.7922 138.44 30.7922 138.097 30.9682ZM138.097 34.0127C138.091 34.2714 138.086 34.5302 138.082 34.789C138.079 34.9331 138.076 35.0772 138.074 35.2257C138.057 35.6094 138.057 35.6094 138.34 35.8394C139.209 35.9264 140.152 35.9906 140.89 35.474C141.052 35.1274 141.052 35.1274 141.012 34.7434C140.876 34.3977 140.876 34.3977 140.647 34.1345C140.311 34.0222 140.115 33.9983 139.769 34.0008C139.623 34.0014 139.623 34.0014 139.474 34.002C139.322 34.0035 139.322 34.0035 139.167 34.0051C139.013 34.0059 139.013 34.0059 138.856 34.0067C138.603 34.0082 138.35 34.0104 138.097 34.0127Z" fill="white"/>
<path d="M90.0262 29.3625C90.1486 29.361 90.271 29.3595 90.3971 29.358C91.5234 29.3558 92.5661 29.418 93.411 30.2378C93.9008 30.8874 93.8641 31.6499 93.7753 32.4298C93.6464 32.9322 93.4764 33.2782 93.0411 33.5714C92.8034 33.6931 92.5684 33.7985 92.3182 33.8911C92.4585 34.2939 92.6426 34.6537 92.8547 35.0218C92.9092 35.1166 92.9638 35.2113 93.02 35.3089C93.1345 35.5063 93.25 35.7033 93.3662 35.8997C93.4203 35.9943 93.4744 36.0889 93.5301 36.1863C93.5801 36.2717 93.63 36.3571 93.6815 36.4451C93.7942 36.7417 93.7594 36.8852 93.6539 37.1791C93.3837 37.2055 93.1128 37.2243 92.8418 37.24C92.6911 37.2513 92.5404 37.2626 92.3851 37.2742C91.9098 37.1694 91.8747 37.1419 91.6275 36.7562C91.5298 36.5746 91.4363 36.3907 91.3467 36.2049C91.3027 36.115 91.2587 36.0252 91.2133 35.9326C90.8557 35.1902 90.8557 35.1902 90.6981 34.8337C90.4614 34.3244 90.4614 34.3244 90.0018 34.0466C89.7034 34.0029 89.7034 34.0029 89.2824 34.0129C89.2831 34.1001 89.2837 34.1874 89.2844 34.2773C89.2869 34.6712 89.2885 35.0651 89.29 35.459C89.291 35.5963 89.2921 35.7337 89.2931 35.8752C89.2935 36.0063 89.2939 36.1374 89.2943 36.2724C89.2949 36.3936 89.2956 36.5148 89.2962 36.6396C89.2824 36.9355 89.2824 36.9355 89.161 37.1791C88.9233 37.1889 88.6855 37.196 88.4476 37.2019C88.249 37.2083 88.249 37.2083 88.0463 37.2148C87.9333 37.203 87.8203 37.1912 87.7038 37.1791C87.4442 36.7885 87.4304 36.687 87.4296 36.2381C87.4288 36.1214 87.428 36.0047 87.4272 35.8845C87.4277 35.7585 87.4282 35.6325 87.4287 35.5027C87.4285 35.3728 87.4283 35.2429 87.428 35.1091C87.4279 34.8339 87.4283 34.5588 87.4293 34.2836C87.4306 33.864 87.4293 33.4445 87.4278 33.0249C87.4279 32.7574 87.4283 32.4899 87.4287 32.2224C87.4282 32.0974 87.4278 31.9724 87.4272 31.8436C87.4315 31.1815 87.4649 30.615 87.7038 29.9942C88.4152 29.2991 89.0899 29.3631 90.0262 29.3625ZM89.2824 31.0902C89.2529 31.4711 89.2529 31.4711 89.2673 31.897C89.2694 32.0417 89.2716 32.1865 89.2739 32.3356C89.2767 32.447 89.2795 32.5585 89.2824 32.6733C90.6108 32.7457 90.6108 32.7457 91.8325 32.308C92.0002 32.1663 92.0002 32.1663 91.9842 31.7752C91.9915 31.3495 91.9915 31.3495 91.8021 31.1054C91.3366 30.8053 90.8402 30.8269 90.2994 30.8238C90.0904 30.8212 90.0904 30.8212 89.8773 30.8186C89.5098 30.8095 89.5098 30.8095 89.2824 31.0902Z" fill="white"/>
<path d="M120.125 29.3625C120.233 29.3608 120.34 29.3591 120.451 29.3573C120.732 29.3854 120.732 29.3854 120.975 29.6289C121.003 29.9137 121.003 29.9137 120.999 30.2654C120.998 30.3785 120.998 30.4917 120.997 30.6082C120.994 30.8242 120.994 30.8242 120.99 31.0446C120.985 31.5017 120.98 31.9588 120.975 32.4298C122.137 32.4298 123.299 32.4298 124.497 32.4298C124.487 31.519 124.487 31.519 124.475 30.6082C124.474 30.4951 124.473 30.382 124.473 30.2654C124.471 30.0913 124.471 30.0913 124.469 29.9137C124.497 29.6289 124.497 29.6289 124.739 29.3854C125.02 29.353 125.02 29.353 125.347 29.3549C125.454 29.3543 125.562 29.3537 125.673 29.353C125.954 29.3854 125.954 29.3854 126.197 29.6289C126.227 29.9394 126.227 29.9394 126.226 30.3366C126.227 30.559 126.227 30.559 126.227 30.786C126.226 30.9485 126.226 31.1109 126.225 31.2734C126.224 31.4393 126.224 31.6052 126.224 31.7711C126.224 32.1189 126.223 32.4666 126.222 32.8144C126.22 33.261 126.219 33.7077 126.219 34.1543C126.219 34.4969 126.218 34.8394 126.218 35.182C126.217 35.3467 126.217 35.5115 126.217 35.6762C126.217 35.906 126.215 36.1357 126.214 36.3655C126.214 36.5619 126.214 36.5619 126.213 36.7624C126.197 37.0574 126.197 37.0574 126.075 37.1792C125.833 37.1912 125.59 37.1949 125.347 37.1944C125.214 37.1947 125.081 37.195 124.944 37.1953C124.618 37.1792 124.618 37.1792 124.497 37.0574C124.486 36.8316 124.484 36.6055 124.485 36.3795C124.485 36.2562 124.485 36.1329 124.486 36.0058C124.487 35.848 124.488 35.6902 124.489 35.5275C124.491 35.0277 124.494 34.5279 124.497 34.0129C123.335 34.0129 122.172 34.0129 120.975 34.0129C120.98 34.9638 120.98 34.9638 120.986 35.9147C120.986 36.0328 120.987 36.1508 120.987 36.2725C120.988 36.3936 120.988 36.5148 120.989 36.6397C120.975 36.9356 120.975 36.9356 120.854 37.1792C120.616 37.189 120.378 37.1961 120.14 37.202C119.942 37.2083 119.942 37.2083 119.739 37.2148C119.626 37.2031 119.513 37.1913 119.397 37.1792C119.122 36.7661 119.123 36.625 119.124 36.1409C119.124 36.0032 119.123 35.8654 119.123 35.7235C119.124 35.5747 119.125 35.4259 119.126 35.2726C119.126 35.1199 119.126 34.9672 119.126 34.8099C119.126 34.4868 119.127 34.1637 119.129 33.8407C119.131 33.4267 119.131 33.0127 119.131 32.5987C119.131 32.2037 119.132 31.8087 119.133 31.4137C119.133 31.1905 119.133 31.1905 119.134 30.9628C119.135 30.7562 119.135 30.7562 119.136 30.5454C119.137 30.424 119.137 30.3026 119.137 30.1775C119.154 29.8725 119.154 29.8725 119.275 29.5072C119.576 29.3563 119.79 29.365 120.125 29.3625Z" fill="white"/>
<path d="M83.9652 29.5727C84.6644 30.1453 84.8662 31.0005 85.1183 31.8323C85.1583 31.962 85.1983 32.0916 85.2396 32.2253C85.3235 32.4986 85.4069 32.7721 85.4896 33.0457C85.6166 33.4641 85.7464 33.8814 85.8765 34.2988C85.9579 34.5649 86.0391 34.8312 86.1201 35.0975C86.1785 35.2841 86.1785 35.2841 86.2381 35.4746C86.4199 36.0844 86.5565 36.5478 86.3681 37.1791C86.133 37.1923 85.8977 37.2017 85.6623 37.2095C85.5313 37.2152 85.4003 37.2208 85.2653 37.2267C85.1484 37.211 85.0315 37.1953 84.911 37.1791C84.5467 36.692 84.5467 36.692 84.1824 35.3524C83.1405 35.3524 82.0987 35.3524 81.0252 35.3524C80.9476 35.6086 80.87 35.8648 80.79 36.1288C80.5547 36.9051 80.5547 36.9051 80.4181 37.1791C79.8972 37.1791 79.3762 37.1791 78.8395 37.1791C78.7295 36.6278 78.704 36.4898 78.8488 35.995C78.8963 35.8291 78.8963 35.8291 78.9448 35.6598C78.9803 35.5416 79.0159 35.4233 79.0525 35.3015C79.0887 35.1782 79.1248 35.0549 79.1621 34.9279C79.2391 34.667 79.3168 34.4063 79.3952 34.1458C79.5137 33.7507 79.6289 33.3547 79.7438 32.9585C79.8193 32.7043 79.8949 32.4502 79.9708 32.1962C80.0046 32.0792 80.0384 31.9622 80.0732 31.8417C80.356 30.916 80.7078 29.9166 81.5413 29.3701C82.4252 29.1633 83.1447 29.1631 83.9652 29.5727ZM82.361 30.8467C81.9357 31.3553 81.8256 32.02 81.6703 32.6505C81.5777 33.0197 81.485 33.3889 81.3895 33.7693C82.191 33.7693 82.9924 33.7693 83.8181 33.7693C83.7027 33.3276 83.5862 32.8862 83.469 32.445C83.4363 32.3192 83.4036 32.1935 83.3699 32.064C83.3378 31.9439 83.3057 31.8238 83.2726 31.7C83.2434 31.5891 83.2141 31.4781 83.184 31.3638C83.1048 31.0701 83.1048 31.0701 82.8467 30.8467C82.6864 30.8467 82.5261 30.8467 82.361 30.8467Z" fill="white"/>
<path d="M128.747 29.3627C128.854 29.3609 128.962 29.3592 129.073 29.3574C129.354 29.3855 129.354 29.3855 129.597 29.629C129.624 29.9958 129.636 30.3522 129.638 30.7193C129.64 30.8281 129.642 30.9368 129.644 31.0489C129.649 31.3976 129.654 31.7463 129.657 32.095C129.662 32.5524 129.669 33.0096 129.676 33.4669C129.677 33.5716 129.678 33.6763 129.678 33.7842C129.688 34.3473 129.718 34.833 129.961 35.3526C130.576 35.6297 131.238 35.6763 131.904 35.5962C132.398 35.4071 132.581 35.3084 132.875 34.8655C132.914 34.63 132.914 34.63 132.912 34.3715C132.914 34.2727 132.916 34.174 132.918 34.0722C132.919 33.966 132.92 33.8599 132.921 33.7505C132.923 33.641 132.925 33.5316 132.927 33.4188C132.934 33.0689 132.939 32.719 132.944 32.369C132.949 32.0191 132.955 31.6692 132.961 31.3193C132.965 31.1015 132.968 30.8837 132.971 30.6659C132.972 30.5671 132.974 30.4684 132.976 30.3666C132.977 30.2364 132.977 30.2364 132.979 30.1036C132.997 29.8726 132.997 29.8726 133.118 29.5073C133.419 29.3564 133.633 29.3651 133.968 29.3627C134.076 29.3609 134.183 29.3592 134.294 29.3574C134.575 29.3855 134.575 29.3855 134.818 29.629C134.85 29.8544 134.85 29.8544 134.851 30.1312C134.853 30.2867 134.853 30.2867 134.855 30.4455C134.855 30.558 134.855 30.6705 134.855 30.7864C134.855 30.9024 134.856 31.0184 134.856 31.1379C134.857 31.3841 134.857 31.6303 134.856 31.8765C134.856 32.2504 134.859 32.6242 134.862 32.9981C134.862 33.2377 134.862 33.4772 134.862 33.7167C134.863 33.8275 134.864 33.9383 134.866 34.0524C134.859 34.9247 134.699 35.6728 134.249 36.4258C133.237 37.3857 131.994 37.3545 130.684 37.3343C129.763 37.2994 129.081 37.0867 128.443 36.4029C127.766 35.5038 127.756 34.4068 127.759 33.3223C127.759 33.2244 127.759 33.1265 127.759 33.0256C127.759 32.8201 127.759 32.6146 127.759 32.4091C127.76 32.0943 127.759 31.7795 127.759 31.4647C127.759 31.2645 127.759 31.0642 127.759 30.8639C127.759 30.7699 127.759 30.6759 127.758 30.5791C127.76 30.1896 127.773 29.8795 127.897 29.5073C128.197 29.3564 128.411 29.3651 128.747 29.3627Z" fill="white"/>
<path d="M104.028 14.8633C104.111 14.8608 104.194 14.8583 104.279 14.8557C104.89 14.8509 104.89 14.8509 105.152 15.0503C105.428 15.4138 105.361 15.8617 105.358 16.3009C105.359 16.4072 105.359 16.5136 105.36 16.6232C105.361 16.9753 105.36 17.3273 105.359 17.6794C105.359 17.9237 105.36 18.1681 105.36 18.4124C105.361 18.9247 105.36 19.4369 105.358 19.9492C105.356 20.6065 105.357 21.2637 105.36 21.921C105.361 22.4256 105.36 22.9301 105.359 23.4347C105.359 23.6771 105.36 23.9195 105.36 24.1619C105.361 24.5004 105.36 24.8388 105.358 25.1773C105.359 25.3282 105.359 25.3282 105.36 25.4822C105.353 26.1638 105.353 26.1638 105.154 26.427C104.804 26.6928 104.396 26.6418 103.975 26.6377C103.887 26.6401 103.799 26.6426 103.708 26.6451C103.071 26.6445 103.071 26.6445 102.796 26.4008C102.572 25.967 102.589 25.5544 102.594 25.0772C102.594 24.9746 102.593 24.8719 102.593 24.7662C102.592 24.4272 102.593 24.0883 102.595 23.7493C102.595 23.5136 102.595 23.2779 102.595 23.0423C102.595 22.5484 102.596 22.0546 102.598 21.5608C102.601 20.9277 102.601 20.2946 102.6 19.6615C102.6 19.1749 102.601 18.6883 102.602 18.2017C102.603 17.9682 102.603 17.7348 102.602 17.5013C102.602 17.1751 102.604 16.849 102.606 16.5228C102.606 16.4262 102.605 16.3297 102.605 16.2302C102.613 15.3903 102.613 15.3903 102.882 15.0155C103.249 14.8317 103.626 14.8663 104.028 14.8633Z" fill="white"/>
<path d="M96.0826 29.3627C96.1903 29.3609 96.298 29.3592 96.409 29.3574C96.6898 29.3855 96.6898 29.3855 96.9326 29.629C96.9714 29.9138 96.9714 29.9138 96.9829 30.2655C96.9876 30.3911 96.9923 30.5167 96.9972 30.6461C97.0009 30.7776 97.0047 30.9092 97.0085 31.0447C97.0132 31.1772 97.0179 31.3097 97.0228 31.4462C97.0342 31.7741 97.0446 32.102 97.0541 32.4299C97.8198 31.5417 98.5813 30.6547 99.2977 29.7256C99.4827 29.5073 99.4827 29.5073 99.7255 29.3855C99.9681 29.3706 100.211 29.3641 100.454 29.3627C100.584 29.3609 100.715 29.3592 100.849 29.3574C101.183 29.3855 101.183 29.3855 101.426 29.629C101.391 30.0918 101.131 30.365 100.841 30.7098C100.696 30.8838 100.696 30.8838 100.547 31.0614C100.435 31.1929 100.323 31.3243 100.211 31.4557C100.115 31.5689 100.115 31.5689 100.017 31.6843C99.5976 32.1778 99.1764 32.6697 98.7541 33.1606C98.9538 33.6368 99.2764 33.9942 99.6117 34.3784C100.075 34.9207 100.533 35.4661 100.97 36.03C101.061 36.1457 101.152 36.2614 101.245 36.3806C101.426 36.6922 101.426 36.6922 101.393 36.9771C101.364 37.0438 101.334 37.1105 101.304 37.1793C99.8648 37.3641 99.8648 37.3641 99.282 36.9509C99.0011 36.6341 98.755 36.3077 98.5112 35.9615C98.3376 35.7451 98.1631 35.5294 97.9876 35.3145C97.8381 35.1244 97.6888 34.9342 97.5398 34.7437C97.3781 34.5406 97.2162 34.3376 97.0541 34.1348C97.051 34.2184 97.048 34.302 97.0449 34.3881C97.0308 34.7654 97.0159 35.1427 97.0009 35.52C96.9962 35.6516 96.9914 35.7831 96.9865 35.9187C96.9814 36.0443 96.9763 36.1698 96.9711 36.2992C96.9644 36.4733 96.9644 36.4733 96.9576 36.6509C96.9326 36.9357 96.9326 36.9357 96.8112 37.1793C96.5735 37.1891 96.3357 37.1962 96.0978 37.2021C95.8992 37.2085 95.8992 37.2085 95.6965 37.2149C95.5835 37.2032 95.4705 37.1914 95.3541 37.1793C95.0794 36.7662 95.081 36.6251 95.0817 36.1411C95.0813 36.0033 95.081 35.8655 95.0806 35.7236C95.0814 35.5748 95.0823 35.426 95.0832 35.2727C95.0833 35.12 95.0833 34.9673 95.0834 34.81C95.0837 34.4869 95.0846 34.1639 95.0862 33.8408C95.0883 33.4268 95.0887 33.0128 95.0886 32.5988C95.0887 32.2038 95.0898 31.8088 95.0908 31.4138C95.091 31.1906 95.091 31.1906 95.0912 30.9629C95.0924 30.7563 95.0924 30.7563 95.0936 30.5455C95.094 30.4241 95.0945 30.3027 95.095 30.1776C95.1112 29.8726 95.1112 29.8726 95.2326 29.5073C95.5335 29.3564 95.7471 29.3651 96.0826 29.3627Z" fill="white"/>
<path d="M104.446 29.3648C104.539 29.3643 104.632 29.3639 104.728 29.3635C104.925 29.3629 105.122 29.3626 105.319 29.3626C105.621 29.3624 105.923 29.3602 106.225 29.3579C106.416 29.3575 106.607 29.3573 106.799 29.3571C106.889 29.3563 106.98 29.3554 107.073 29.3545C107.711 29.3573 107.711 29.3573 107.982 29.6288C108.018 29.8837 108.018 29.8837 108.02 30.1768C108.022 30.2735 108.024 30.3702 108.026 30.4698C108.012 30.5539 107.997 30.6381 107.982 30.7248C107.546 31.016 107.355 30.9968 106.838 30.9921C106.61 30.9909 106.61 30.9909 106.377 30.9897C106.138 30.9867 106.138 30.9867 105.895 30.9835C105.733 30.9823 105.571 30.9812 105.408 30.9802C105.012 30.9773 104.615 30.973 104.218 30.9683C104.178 31.4907 104.138 32.0132 104.096 32.5514C104.321 32.5472 104.546 32.543 104.778 32.5386C105.072 32.5352 105.366 32.5318 105.66 32.5286C105.882 32.524 105.882 32.524 106.11 32.5193C106.322 32.5176 106.322 32.5176 106.539 32.5158C106.736 32.5129 106.736 32.5129 106.936 32.51C107.041 32.5236 107.145 32.5373 107.253 32.5514C107.534 32.974 107.537 33.1512 107.496 33.6474C107.416 33.768 107.336 33.8886 107.253 34.0128C106.936 34.0542 106.936 34.0542 106.539 34.0484C106.397 34.0473 106.256 34.0461 106.11 34.0449C105.961 34.0418 105.813 34.0388 105.66 34.0356C105.51 34.034 105.361 34.0323 105.207 34.0306C104.836 34.0263 104.466 34.0203 104.096 34.0128C104.113 34.2538 104.131 34.4948 104.149 34.7358C104.159 34.87 104.169 35.0043 104.179 35.1425C104.182 35.4633 104.182 35.4633 104.339 35.5959C104.605 35.6122 104.872 35.6207 105.139 35.6258C105.304 35.6299 105.468 35.6339 105.633 35.638C105.893 35.6438 106.154 35.6492 106.414 35.6539C106.665 35.6588 106.915 35.665 107.166 35.6715C107.316 35.6746 107.467 35.6776 107.622 35.6808C107.982 35.7177 107.982 35.7177 108.225 35.9612C108.253 36.1895 108.253 36.1895 108.248 36.4483C108.247 36.5337 108.246 36.6191 108.245 36.7071C108.225 36.9354 108.225 36.9354 108.103 37.179C107.423 37.188 106.742 37.1947 106.062 37.1991C105.83 37.2009 105.599 37.2034 105.367 37.2065C105.034 37.211 104.701 37.2131 104.368 37.2147C104.265 37.2165 104.162 37.2184 104.056 37.2204C103.492 37.2205 103.069 37.2188 102.639 36.8137C102.25 36.1383 102.222 35.4444 102.231 34.6821C102.231 34.5746 102.231 34.4672 102.23 34.3565C102.231 34.1309 102.232 33.9052 102.234 33.6796C102.237 33.3359 102.236 32.9924 102.236 32.6487C102.236 32.4284 102.237 32.2081 102.238 31.9877C102.238 31.886 102.238 31.7842 102.238 31.6794C102.245 31.0733 102.307 30.5646 102.518 29.9941C103.12 29.4056 103.639 29.366 104.446 29.3648Z" fill="white"/>
<path d="M109.338 29.3551C109.447 29.3553 109.556 29.3554 109.668 29.3556C109.791 29.3553 109.914 29.3549 110.041 29.3545C110.174 29.3554 110.308 29.3562 110.445 29.3571C110.65 29.3572 110.65 29.3572 110.859 29.3573C111.148 29.3577 111.437 29.3586 111.726 29.3601C112.17 29.3624 112.614 29.3626 113.057 29.3626C113.338 29.3632 113.618 29.3639 113.898 29.3648C114.032 29.3649 114.165 29.365 114.303 29.3652C114.488 29.3663 114.488 29.3663 114.676 29.3675C114.785 29.368 114.894 29.3684 115.006 29.3689C115.268 29.3852 115.268 29.3852 115.511 29.507C115.683 30.3809 115.683 30.3809 115.39 30.9683C114.628 30.9683 113.867 30.9683 113.083 30.9683C113.083 31.1521 113.084 31.3359 113.085 31.5253C113.087 32.2046 113.088 32.8838 113.089 33.5631C113.09 33.8576 113.091 34.1521 113.092 34.4466C113.093 34.8688 113.094 35.2911 113.094 35.7134C113.095 35.8459 113.096 35.9785 113.096 36.1151C113.096 36.237 113.096 36.3589 113.096 36.4844C113.097 36.5923 113.097 36.7002 113.097 36.8114C113.083 37.0572 113.083 37.0572 112.961 37.179C112.721 37.1974 112.481 37.206 112.24 37.2094C112.109 37.2126 111.978 37.2157 111.842 37.2189C111.731 37.2058 111.619 37.1926 111.504 37.179C111.243 36.7867 111.231 36.6866 111.234 36.2356C111.234 36.1186 111.234 36.0016 111.234 35.881C111.235 35.7551 111.236 35.6291 111.237 35.4993C111.238 35.3701 111.238 35.2409 111.238 35.1077C111.24 34.6945 111.243 34.2813 111.246 33.8682C111.247 33.5882 111.248 33.3083 111.249 33.0283C111.252 32.3416 111.256 31.655 111.261 30.9683C111.029 30.9726 111.029 30.9726 110.792 30.9769C110.589 30.9792 110.386 30.9814 110.183 30.9835C110.03 30.9866 110.03 30.9866 109.874 30.9897C109.776 30.9905 109.678 30.9913 109.577 30.9921C109.487 30.9934 109.397 30.9947 109.304 30.996C109.075 30.9683 109.075 30.9683 108.833 30.7248C108.8 30.4698 108.8 30.4698 108.802 30.1768C108.802 30.0801 108.801 29.9834 108.8 29.8837C108.847 29.5145 108.971 29.3972 109.338 29.3551Z" fill="white"/>
<path d="M1.4885 25.2451C1.52857 25.3255 1.56864 25.4059 1.60992 25.4887C2.93229 25.3681 2.93229 25.3681 4.28138 25.2451C4.03852 26.2193 4.03852 26.2193 3.91709 26.4629C3.31134 26.3886 2.75118 26.2638 2.16395 26.09C2.01384 26.0458 1.86372 26.0017 1.70906 25.9563C1.5962 25.9225 1.48334 25.8888 1.36707 25.854C1.40714 25.6531 1.44721 25.4521 1.4885 25.2451Z" fill="#814730"/>
</svg>
