<svg width="1343" height="300" viewBox="0 0 1343 300" fill="none" xmlns="http://www.w3.org/2000/svg">
<path d="M190.062 28.7848C191.192 28.8026 192.322 28.8205 193.486 28.8388C196.238 28.8849 198.988 28.9495 201.739 29.0318C201.936 29.6667 202.134 30.3017 202.337 30.9559C209.701 54.684 217.088 78.4048 224.476 102.125C226.107 102.125 227.738 102.125 229.419 102.125C229.433 101.35 229.447 100.574 229.462 99.7747C229.537 96.1953 229.632 92.6167 229.727 89.0378C229.761 87.2081 229.761 87.2081 229.795 85.3414C230.218 70.7276 233.391 56.9047 243.567 45.8236C251.341 38.8358 261.086 36.0184 271.37 35.6991C274.891 35.946 274.891 35.946 277.857 37.9215C278.584 39.6559 278.584 39.6559 279.094 41.7851C279.294 42.592 279.493 43.399 279.699 44.2304C279.905 45.1175 280.112 46.0046 280.325 46.9186C280.552 47.8521 280.779 48.7855 281.013 49.7472C281.764 52.8469 282.498 55.9503 283.232 59.054C283.752 61.2131 284.272 63.372 284.794 65.5306C286.168 71.231 287.528 76.9348 288.886 82.6393C290.259 88.4005 291.647 94.1583 293.033 99.9165C301.249 134.089 301.249 134.089 304.548 148.55C304.749 144.083 304.95 139.616 305.15 135.148C305.326 131.204 305.505 127.26 305.685 123.315C306.175 112.502 306.619 101.689 306.992 90.8705C307.108 87.6588 307.224 84.4472 307.342 81.2356C307.415 79.1623 307.483 77.0889 307.546 75.0153C307.635 72.0994 307.74 69.1845 307.849 66.2693C307.882 64.9863 307.882 64.9863 307.915 63.6774C308.252 55.4386 310.342 48.7892 316.41 42.8603C326.127 36.5264 336.326 36.6732 347.549 36.8103C350.106 36.833 352.663 36.8551 355.22 36.8764C357.441 36.8955 359.662 36.9146 361.883 36.9338C369.707 60.2604 377.404 83.6254 384.982 107.033C386.486 111.678 387.993 116.322 389.499 120.967C390.73 124.761 391.958 128.556 393.183 132.353C395.334 139.016 397.493 145.675 399.704 152.318C400.654 155.173 401.596 158.03 402.537 160.888C402.98 162.226 403.427 163.563 403.878 164.898C404.495 166.728 405.099 168.562 405.703 170.397C406.047 171.428 406.392 172.46 406.747 173.523C407.36 176.226 407.318 177.593 406.367 180.158C405.536 179.77 404.705 179.382 403.849 178.983C400.7 177.513 397.552 176.044 394.403 174.575C393.052 173.945 391.702 173.315 390.351 172.685C389.04 172.073 387.728 171.462 386.416 170.853C385.1 170.236 383.789 169.61 382.482 168.976C379.354 167.471 376.46 166.256 373.11 165.281C368.831 163.917 365.213 162.65 362.799 158.641C360.562 153.615 359.222 148.314 357.838 143.004C356.859 139.356 355.774 135.746 354.659 132.138C354.246 130.801 353.833 129.465 353.421 128.129C353.212 127.454 353.004 126.779 352.789 126.083C351.729 122.632 350.692 119.175 349.656 115.717C349.448 115.024 349.24 114.331 349.026 113.618C348.603 112.208 348.181 110.799 347.758 109.389C346.673 105.772 345.585 102.155 344.497 98.5391C342.38 91.5043 340.268 84.4684 338.158 77.4317C337.29 91.2928 336.421 105.154 335.554 119.015C335.151 125.455 334.747 131.895 334.344 138.335C333.954 144.561 333.564 150.786 333.174 157.011C333.022 159.453 332.869 161.896 332.715 164.339C331.999 175.772 331.283 187.205 330.608 198.64C330.562 199.418 330.516 200.195 330.468 200.996C330.265 204.428 330.064 207.86 329.868 211.292C329.528 217.087 329.087 222.809 328.273 228.558C316.276 226.789 306.716 219.762 299.424 210.239C275.528 177.785 268.304 135.747 260.063 97.1867C259.354 103.514 258.907 109.777 258.797 116.142C258.779 116.99 258.761 117.838 258.743 118.712C258.705 120.534 258.669 122.357 258.634 124.18C258.58 127.076 258.52 129.972 258.459 132.868C258.33 139.022 258.208 145.175 258.086 151.328C257.945 158.455 257.801 165.583 257.652 172.71C257.593 175.542 257.539 178.374 257.486 181.207C257.3 190.44 256.983 199.604 256.109 208.803C251.762 209.738 247.55 210.003 243.115 210.103C242.354 210.124 241.593 210.144 240.809 210.165C238.392 210.23 235.975 210.288 233.558 210.346C231.914 210.389 230.269 210.432 228.625 210.475C224.606 210.581 220.587 210.681 216.568 210.778C215.739 207.878 214.916 204.976 214.096 202.074C213.743 200.839 213.743 200.839 213.382 199.579C213.159 198.787 212.936 197.994 212.706 197.177C212.499 196.448 212.292 195.719 212.079 194.967C211.625 192.999 211.625 192.999 211.625 190.036C210.389 189.776 209.153 189.516 207.879 189.249C202.341 188.017 196.92 186.445 191.479 184.842C190.439 184.538 189.398 184.234 188.326 183.92C185.032 182.957 181.74 181.99 178.447 181.022C176.202 180.365 173.956 179.708 171.711 179.051C166.232 177.447 160.755 175.841 155.278 174.231C153.347 179.754 151.713 185.232 150.467 190.946C150.139 192.38 149.811 193.814 149.482 195.248C148.977 197.466 148.478 199.684 147.993 201.906C147.516 204.081 147.016 206.249 146.512 208.417C146.374 209.077 146.236 209.736 146.094 210.416C144.973 215.127 143.09 217.519 139.461 220.656C138.715 221.354 137.968 222.051 137.199 222.77C132.111 227.361 126.915 231.772 121.587 236.082C118.451 238.64 115.361 241.248 112.277 243.868C110.136 245.681 107.994 247.491 105.851 249.301C105.324 249.746 104.798 250.19 104.255 250.649C102.753 251.913 101.244 253.169 99.7344 254.425C98.8641 255.152 97.9938 255.879 97.097 256.628C94.9771 258.19 94.9771 258.19 93 258.19C94.5429 247.819 97.4117 237.787 100.144 227.682C100.651 225.793 101.158 223.904 101.665 222.015C102.99 217.076 104.321 212.138 105.653 207.201C107.014 202.149 108.371 197.097 109.728 192.044C112.385 182.154 115.047 172.266 117.714 162.378C117.109 162.246 116.504 162.113 115.881 161.976C115.085 161.8 114.289 161.624 113.468 161.443C112.286 161.183 112.286 161.183 111.08 160.917C108.305 160.287 105.565 159.561 102.824 158.798C101.895 158.541 100.966 158.283 100.009 158.018C99.3269 157.827 98.6451 157.636 97.9427 157.44C98.8806 152.095 100.859 147.457 103.009 142.5C103.371 141.605 103.733 140.71 104.106 139.787C106.003 135.434 107.036 133.219 111.203 130.728C115.435 129.599 119.644 128.81 123.969 128.135C127.351 126.45 127.654 124.634 128.852 121.189C130.045 117.446 131.098 113.674 132.105 109.877C132.333 109.029 132.561 108.181 132.796 107.308C133.275 105.519 133.753 103.73 134.228 101.941C134.941 99.261 135.661 96.583 136.382 93.9051C138.767 85.0025 141.077 76.0949 143.083 67.0982C146.111 53.7439 152.334 42.5885 163.663 34.5471C172.075 29.2603 180.326 28.4885 190.062 28.7848ZM178.014 74.4684C175.318 83.3264 173.03 92.2651 170.848 101.261C170.58 102.35 170.313 103.44 170.038 104.562C169.79 105.594 169.543 106.626 169.288 107.689C169.064 108.615 168.841 109.541 168.611 110.495C168.004 113.214 168.004 113.214 168.129 116.942C171.033 116.306 173.937 115.668 176.841 115.028C178.076 114.758 178.076 114.758 179.337 114.482C180.13 114.307 180.924 114.132 181.741 113.952C182.471 113.791 183.201 113.631 183.953 113.466C186.109 112.975 186.109 112.975 188.888 112.003C187.441 103.728 185.184 95.7384 182.834 87.6796C182.461 86.3923 182.089 85.1049 181.718 83.8173C180.816 80.7 179.911 77.5837 179.003 74.4684C178.677 74.4684 178.351 74.4684 178.014 74.4684ZM176.037 144.599C178.433 146.992 179.669 147.064 182.965 147.632C184.427 147.889 184.427 147.889 185.919 148.152C187.45 148.41 187.45 148.41 189.012 148.673C190.555 148.943 190.555 148.943 192.128 149.217C194.672 149.66 197.216 150.096 199.762 150.525C199.58 146.237 199.58 146.237 197.785 142.623C190.424 142.191 183.294 143.458 176.037 144.599Z" fill="#F48634"/>
<path d="M234.361 136.698C237.04 145.178 239.666 153.671 242.208 162.194C244.191 168.838 246.227 175.463 248.324 182.072C248.692 183.235 248.692 183.235 249.068 184.422C250.173 187.911 251.287 191.398 252.418 194.879C252.96 196.576 252.96 196.576 253.514 198.309C253.828 199.274 254.141 200.239 254.464 201.233C255.121 203.867 255.248 206.102 255.121 208.804C251.223 210.053 247.264 210.013 243.212 210.104C242.449 210.124 241.687 210.145 240.902 210.166C238.474 210.23 236.047 210.289 233.62 210.347C231.971 210.39 230.322 210.433 228.673 210.476C224.638 210.582 220.603 210.682 216.568 210.779C215.739 207.879 214.916 204.977 214.096 202.074C213.86 201.251 213.625 200.428 213.382 199.58C213.159 198.787 212.936 197.995 212.706 197.178C212.499 196.449 212.292 195.719 212.079 194.968C211.625 192.999 211.625 192.999 211.625 190.036C210.389 189.777 209.153 189.517 207.879 189.25C202.341 188.018 196.92 186.446 191.479 184.843C190.439 184.539 189.398 184.235 188.326 183.921C185.032 182.958 181.74 181.99 178.447 181.023C176.202 180.365 173.956 179.708 171.711 179.051C166.232 177.448 160.755 175.841 155.278 174.232C153.347 179.755 151.713 185.233 150.467 190.947C150.139 192.381 149.811 193.815 149.482 195.249C148.977 197.467 148.478 199.685 147.993 201.907C147.516 204.081 147.016 206.249 146.512 208.418C146.374 209.077 146.236 209.737 146.094 210.417C144.973 215.128 143.09 217.519 139.461 220.657C138.715 221.354 137.968 222.052 137.199 222.771C132.111 227.362 126.915 231.772 121.587 236.082C118.451 238.641 115.361 241.249 112.277 243.869C110.136 245.681 107.994 247.492 105.851 249.301C105.061 249.969 105.061 249.969 104.255 250.649C102.753 251.914 101.244 253.17 99.7344 254.425C98.8641 255.152 97.9938 255.879 97.097 256.629C94.9771 258.191 94.9771 258.191 93 258.191C94.5429 247.82 97.4117 237.787 100.144 227.683C100.651 225.794 101.158 223.905 101.665 222.016C102.99 217.077 104.321 212.139 105.653 207.202C107.014 202.15 108.371 197.097 109.728 192.045C112.385 182.155 115.047 172.266 117.714 162.379C117.109 162.246 116.504 162.113 115.881 161.977C115.085 161.801 114.289 161.625 113.468 161.444C112.68 161.27 111.892 161.097 111.08 160.918C108.305 160.287 105.565 159.561 102.824 158.799C101.895 158.541 100.966 158.284 100.009 158.019C99.3269 157.828 98.6451 157.637 97.9427 157.44C98.2689 155.811 98.5951 154.181 98.9312 152.502C99.2575 153.154 99.5837 153.805 99.9198 154.477C116.206 152.788 132.379 150.529 148.544 147.933C160.903 145.962 160.903 145.962 167.141 145.587C167.903 145.524 168.665 145.46 169.45 145.394C178.699 144.968 191.375 146.336 199.762 150.526C198.784 147.592 197.805 144.659 196.797 141.636C204.144 140.076 211.461 138.958 218.915 138.056C219.969 137.923 221.023 137.791 222.109 137.654C226.24 137.146 230.192 136.698 234.361 136.698Z" fill="white"/>
<path d="M190.063 28.7854C191.192 28.8032 192.322 28.821 193.486 28.8394C196.238 28.8854 198.988 28.95 201.74 29.0323C201.937 29.6673 202.134 30.3022 202.337 30.9564C202.958 32.959 203.58 34.9615 204.202 36.964C204.962 39.4127 205.721 41.8616 206.479 44.3109C208.758 51.6675 211.057 59.0178 213.38 66.3606C214.663 70.4173 215.94 74.4756 217.217 78.5342C217.856 80.5605 218.498 82.5859 219.142 84.6106C220.054 87.4773 220.957 90.3468 221.858 93.2169C222.138 94.0882 222.417 94.9595 222.705 95.8572C222.954 96.6554 223.203 97.4536 223.459 98.276C223.68 98.9749 223.901 99.6737 224.129 100.394C224.476 102.126 224.476 102.126 223.488 104.102C221.294 104.829 219.065 105.45 216.826 106.023C216.157 106.196 215.488 106.368 214.798 106.546C213.379 106.91 211.958 107.27 210.537 107.627C208.367 108.172 206.201 108.73 204.035 109.291C193.407 112.004 193.407 112.004 188.889 112.004C188.594 110.961 188.3 109.919 187.997 108.846C186.908 104.992 185.814 101.139 184.719 97.2873C184.246 95.6176 183.773 93.9476 183.301 92.2772C182.625 89.881 181.944 87.4859 181.262 85.0911C181.051 84.34 180.84 83.5889 180.622 82.815C179.853 79.35 179.853 79.35 178.015 76.4444C177.751 77.6557 177.488 78.867 177.217 80.115C176.232 84.6117 175.207 89.0989 174.171 93.5842C173.728 95.5258 173.296 97.4699 172.875 99.4162C172.267 102.216 171.621 105.005 170.967 107.794C170.787 108.665 170.606 109.535 170.42 110.432C169.846 112.79 169.272 114.8 168.129 116.942C164.915 118.883 164.915 118.883 161.209 119.906C160.108 120.226 159.006 120.547 157.871 120.877C156.737 121.151 155.604 121.425 154.436 121.707C153.188 122.01 151.939 122.312 150.652 122.624C150.012 122.775 149.371 122.927 148.711 123.083C146.748 123.549 144.788 124.027 142.829 124.507C132.332 127.022 132.332 127.022 127.599 126.82C127.897 125.687 128.196 124.555 128.503 123.388C129.639 119.073 130.774 114.757 131.908 110.441C132.412 108.523 132.917 106.604 133.422 104.686C136.062 94.6541 138.68 84.6226 141.108 74.5369C145.241 57.4111 150.507 42.8166 166.152 32.9833C174.104 29.1059 181.323 28.5193 190.063 28.7854Z" fill="white"/>
<path d="M234.362 136.698C237.041 145.178 239.667 153.671 242.209 162.194C244.192 168.838 246.228 175.463 248.325 182.072C248.571 182.848 248.816 183.623 249.069 184.422C250.174 187.911 251.287 191.398 252.418 194.879C252.78 196.01 253.142 197.142 253.515 198.309C253.828 199.274 254.142 200.239 254.465 201.233C255.122 203.867 255.249 206.102 255.121 208.804C251.224 210.053 247.265 210.013 243.213 210.104C242.45 210.124 241.688 210.145 240.902 210.166C238.475 210.23 236.048 210.289 233.621 210.347C231.972 210.39 230.323 210.433 228.674 210.476C224.639 210.582 220.604 210.682 216.568 210.779C214.076 202.006 211.621 193.249 209.587 184.357C208.136 178.024 206.475 171.785 204.64 165.551C203.785 162.612 203.003 159.662 202.234 156.7C200.834 151.497 198.891 146.593 196.797 141.636C204.132 140.046 211.468 138.957 218.916 138.056C219.97 137.923 221.024 137.791 222.11 137.654C226.241 137.146 230.193 136.698 234.362 136.698Z" fill="white"/>
<path d="M351.783 0.0893011C352.705 0.0850685 353.626 0.0808358 354.574 0.0764749C356.515 0.0708205 358.456 0.0702941 360.397 0.0745909C363.358 0.0777157 366.319 0.0545048 369.28 0.0294957C371.171 0.0272507 373.062 0.0265557 374.952 0.0275665C376.273 0.0139211 376.273 0.0139211 377.621 0C383.901 0.0464754 388.147 0.930273 392.741 5.55064C394.8 8.74217 395.975 11.94 397.056 15.5461C397.269 16.2313 397.483 16.9165 397.703 17.6225C398.15 19.0629 398.592 20.5049 399.029 21.9484C399.697 24.1546 400.383 26.3548 401.071 28.5547C401.505 29.9595 401.938 31.3646 402.369 32.77C402.675 33.7533 402.675 33.7533 402.987 34.7564C403.956 37.9843 404.392 40.4321 404.392 43.8475C405.497 43.8448 406.601 43.8421 407.739 43.8393C434.602 43.7735 461.465 43.7248 488.328 43.694C501.318 43.6787 514.309 43.6579 527.3 43.624C538.622 43.5945 549.944 43.5753 561.266 43.5687C567.262 43.5649 573.257 43.5558 579.252 43.5342C584.896 43.5141 590.539 43.5079 596.182 43.5124C598.253 43.5116 600.324 43.5057 602.395 43.4943C605.224 43.4795 608.052 43.4831 610.881 43.4912C611.699 43.4826 612.517 43.4739 613.361 43.465C618.57 43.5052 622.184 44.378 626.814 46.8108C630.581 50.8256 630.995 54.6349 630.927 60.0503C630.638 64.7181 629.677 69.2381 628.737 73.812C628.415 75.4313 628.415 75.4313 628.087 77.0834C627.382 80.617 626.666 84.148 625.949 87.6791C625.203 91.3903 624.46 95.102 623.717 98.8137C623.207 101.358 622.696 103.903 622.185 106.447C620.442 115.124 618.759 123.811 617.11 132.506C616.456 135.933 615.8 139.36 615.145 142.787C614.73 144.968 614.319 147.151 613.912 149.334C613.344 152.378 612.761 155.418 612.175 158.458C612.014 159.343 611.852 160.229 611.686 161.141C609.158 174.043 609.158 174.043 603.871 177.729C600.868 179.297 598.591 179.775 595.239 180.19C594.078 180.339 592.917 180.488 591.721 180.641C589.842 180.865 589.842 180.865 587.925 181.092C586.595 181.259 585.266 181.426 583.937 181.594C580.463 182.03 576.987 182.453 573.511 182.872C570.275 183.264 567.041 183.667 563.806 184.069C556.648 184.954 549.488 185.82 542.327 186.68C538.771 187.108 535.215 187.538 531.659 187.968C524.971 188.776 518.283 189.583 511.594 190.388C499.569 191.837 487.544 193.288 475.519 194.741C471.314 195.248 467.11 195.755 462.906 196.261C459.691 196.649 456.476 197.037 453.262 197.425C452.113 197.563 450.964 197.701 449.781 197.843C444.527 198.478 439.283 199.134 434.049 199.913C434.049 202.52 434.049 205.128 434.049 207.815C438.429 209.999 442.519 210.086 447.313 210.025C448.135 210.02 448.957 210.014 449.804 210.008C458.851 209.876 467.833 209.092 476.839 208.27C511.418 205.144 546.174 202.632 580.909 202.567C581.672 202.564 582.436 202.56 583.222 202.556C585.336 202.551 587.449 202.561 589.562 202.579C590.729 202.587 591.896 202.596 593.098 202.605C597.434 202.988 600.152 203.996 603.398 206.889C605.684 210.865 606.017 214.195 605.066 218.68C602.422 222.203 600.457 223.866 596.169 224.606C593.966 224.721 591.76 224.783 589.554 224.815C588.164 224.84 586.774 224.867 585.383 224.893C584.639 224.906 583.894 224.92 583.127 224.933C567.104 225.232 551.123 225.983 535.127 226.952C533.547 227.048 533.547 227.048 531.934 227.146C525.445 227.541 518.956 227.945 512.467 228.352C503.716 228.899 494.965 229.434 486.214 229.971C483.217 230.156 480.221 230.343 477.225 230.53C472.635 230.817 468.045 231.091 463.454 231.358C460.662 231.525 457.872 231.71 455.081 231.894C453.247 232.004 451.413 232.114 449.579 232.223C448.758 232.281 447.937 232.34 447.091 232.4C436.666 232.98 428.13 230.497 419.468 224.792C413.731 219.219 412.157 213.071 411.992 205.283C412.023 197.76 413.905 191.768 417.243 185.096C417.276 177.559 415.035 170.783 412.61 163.736C411.785 161.256 410.965 158.774 410.154 156.289C409.822 155.273 409.822 155.273 409.483 154.237C406.44 144.832 403.738 135.326 400.994 125.831C395.421 106.577 389.717 87.3651 383.942 68.171C383.746 67.5211 383.551 66.8713 383.35 66.2017C381.393 59.6985 379.435 53.1957 377.475 46.6936C377.182 45.7145 376.888 44.7355 376.585 43.7268C376.013 41.8373 375.43 39.9511 374.837 38.0683C374.564 37.1964 374.292 36.3244 374.011 35.4261C373.769 34.6658 373.527 33.9055 373.278 33.1222C372.759 31.0067 372.759 31.0067 372.759 27.0557C371.872 27.0713 370.985 27.0868 370.071 27.1028C366.748 27.1536 363.425 27.1906 360.101 27.2185C358.668 27.2333 357.236 27.2535 355.804 27.2793C340.892 27.5411 340.892 27.5411 334.206 24.0925C331.134 21.0228 330.973 17.9645 330.746 13.7828C330.854 10.1566 331.114 7.68352 333.341 4.76955C338.96 0.00961259 344.754 0.0821141 351.783 0.0893011ZM413.289 70.5169C414.49 76.5144 415.595 81.8871 417.406 87.6251C417.762 88.7635 418.118 89.902 418.485 91.075C419.155 93.1833 419.155 93.1833 419.838 95.3342C421.265 99.8568 422.693 104.38 424.163 109.039C440.148 109.039 456.133 109.039 472.602 109.039C472.602 96.3269 472.602 83.6145 472.602 70.5169C453.029 70.5169 433.455 70.5169 413.289 70.5169ZM486.441 70.5169C486.441 83.2293 486.441 95.9416 486.441 109.039C502.752 109.039 519.063 109.039 535.868 109.039C535.868 96.3269 535.868 83.6145 535.868 70.5169C519.557 70.5169 503.246 70.5169 486.441 70.5169ZM549.708 70.5169C549.708 83.2293 549.708 95.9416 549.708 109.039C564.388 109.039 579.067 109.039 594.192 109.039C595.334 103.416 596.476 97.7937 597.652 92.0005C598.194 89.3472 598.194 89.3472 598.747 86.6402C599.031 85.2323 599.315 83.8243 599.598 82.4162C599.748 81.69 599.897 80.9637 600.051 80.2155C600.718 76.8854 601.112 73.9306 601.112 70.5169C584.149 70.5169 567.185 70.5169 549.708 70.5169ZM428.117 121.88C429.9 129.004 431.69 136.063 433.751 143.101C433.988 143.918 434.226 144.734 434.47 145.575C435.213 148.131 435.959 150.686 436.705 153.241C437.216 154.995 437.726 156.75 438.236 158.504C439.474 162.759 440.715 167.014 441.957 171.268C452.22 171.268 462.425 169.631 472.602 168.304C472.602 152.984 472.602 137.664 472.602 121.88C457.922 121.88 443.242 121.88 428.117 121.88ZM486.441 121.88C486.441 136.548 486.441 151.216 486.441 166.329C493.574 165.735 500.603 165.122 507.679 164.164C508.406 164.068 509.132 163.972 509.881 163.873C512.53 163.522 515.179 163.166 517.827 162.81C523.781 162.016 529.734 161.221 535.868 160.402C535.868 147.69 535.868 134.978 535.868 121.88C519.557 121.88 503.246 121.88 486.441 121.88ZM549.708 121.88C549.708 133.941 549.708 146.001 549.708 158.427C562.817 157.725 562.817 157.725 575.842 156.451C576.551 156.37 577.261 156.288 577.991 156.204C581.764 155.779 581.764 155.779 585.295 154.476C586.137 151.786 586.137 151.786 586.786 148.503C587.047 147.281 587.308 146.058 587.577 144.799C587.71 144.158 587.842 143.517 587.978 142.856C588.38 140.914 588.797 138.975 589.215 137.036C590.311 131.833 591.226 127.22 591.226 121.88C577.525 121.88 563.824 121.88 549.708 121.88Z" fill="white"/>
<path d="M446.896 244.363C452.383 248.402 456.053 253.561 457.77 260.167C458.674 268.039 458.112 274.433 453.31 280.968C448.836 286.443 444.113 290.361 437.011 291.775C428.082 292.633 421.861 290.903 414.459 285.972C408.305 279.998 406.435 273.396 406.057 265.044C406.717 256.734 410.023 250.92 416.251 245.351C426.104 238.977 436.617 238.616 446.896 244.363Z" fill="#F0E9E9"/>
<path d="M586.663 242.922C592.907 246.395 597.653 252.305 599.726 259.154C601.379 267.457 599.58 274.598 595.015 281.722C590.973 286.911 585.755 290.327 579.365 291.773C570.452 292.689 564.34 290.84 556.875 286.094C551.134 280.357 548.577 274.479 548.411 266.4C548.455 260.315 549.191 256.247 552.674 251.275C553.5 249.961 553.5 249.961 554.342 248.621C563.39 239.58 575.081 238.283 586.663 242.922Z" fill="#F0E9E9"/>
<path d="M189.877 147.562C190.888 147.731 191.898 147.9 192.939 148.075C199.988 149.513 199.988 149.513 202.02 152.206C202.83 154.279 203.308 156.241 203.717 158.427C204.052 159.673 204.387 160.92 204.732 162.204C205.029 163.463 205.326 164.723 205.632 166.02C207.134 172.281 208.9 178.405 210.899 184.529C211.625 187.072 211.625 187.072 211.625 190.035C204.807 188.603 198.16 186.81 191.48 184.842C190.439 184.537 189.398 184.233 188.326 183.92C185.032 182.956 181.74 181.989 178.447 181.022C176.202 180.364 173.956 179.707 171.711 179.05C166.232 177.447 160.755 175.84 155.278 174.231C154.424 170.406 154.355 167.885 155.274 164.056C155.5 163.092 155.727 162.127 155.96 161.133C156.204 160.138 156.448 159.143 156.699 158.118C156.939 157.104 157.18 156.09 157.427 155.045C158.02 152.548 158.622 150.054 159.232 147.562C158.58 147.236 157.927 146.91 157.255 146.574C158.675 146.401 160.097 146.239 161.518 146.08C162.31 145.988 163.101 145.897 163.916 145.802C172.844 145.204 181.107 145.772 189.877 147.562Z" fill="#EAD9D2"/>
<path d="M1177.98 69.298C1188.21 74.9419 1192.47 89.9044 1197.02 100.026C1197.72 101.57 1198.42 103.114 1199.12 104.658C1200.82 108.404 1202.51 112.154 1204.2 115.905C1205.51 118.799 1206.81 121.692 1208.12 124.585C1210.09 128.948 1212.05 133.315 1214.01 137.684C1214.34 137.684 1214.66 137.684 1215 137.684C1214.99 136.903 1214.99 136.122 1214.99 135.318C1214.95 127.95 1214.92 120.582 1214.9 113.213C1214.89 109.425 1214.87 105.638 1214.85 101.85C1214.83 98.1928 1214.82 94.5359 1214.81 90.8789C1214.81 89.4852 1214.8 88.0915 1214.79 86.6978C1214.78 84.7426 1214.77 82.7873 1214.77 80.832C1214.77 79.72 1214.77 78.6079 1214.76 77.4621C1215 74.3996 1215.57 72.2541 1216.98 69.5295C1219.9 68.0707 1222.56 68.335 1225.81 68.2948C1227.04 68.2694 1228.28 68.2439 1229.55 68.2177C1232.79 68.5418 1232.79 68.5418 1234.65 69.8536C1237.13 73.5446 1236.88 77.0513 1236.89 81.3577C1236.89 82.0552 1236.9 82.7527 1236.9 83.4713C1236.91 85.7808 1236.91 88.0902 1236.91 90.3997C1236.92 92.0106 1236.92 93.6214 1236.92 95.2323C1236.93 98.6143 1236.93 101.996 1236.93 105.378C1236.93 109.69 1236.94 114.002 1236.96 118.314C1236.97 121.645 1236.97 124.976 1236.97 128.307C1236.97 129.895 1236.98 131.484 1236.99 133.072C1237.08 154.611 1237.08 154.611 1232.3 160.465C1228.16 163.673 1224.85 163.61 1219.76 163.675C1218.65 163.718 1218.65 163.718 1217.53 163.762C1212.29 163.821 1208.11 163.034 1204.12 159.415C1196.17 150.065 1191.98 137.314 1187.13 126.202C1186.25 124.185 1185.36 122.168 1184.47 120.152C1182.48 115.618 1180.49 111.08 1178.51 106.539C1177.77 104.874 1177.03 103.215 1176.28 101.559C1175.91 100.761 1175.55 99.9635 1175.18 99.1414C1174.85 98.4313 1174.52 97.7213 1174.19 96.9897C1173.48 95.2111 1173.48 95.2111 1173.48 93.2356C1172.83 93.2356 1172.18 93.2356 1171.5 93.2356C1171.51 94.0705 1171.52 94.9054 1171.52 95.7656C1171.58 103.629 1171.63 111.491 1171.66 119.355C1171.67 123.397 1171.69 127.44 1171.73 131.482C1171.76 135.383 1171.78 139.283 1171.78 143.183C1171.79 144.672 1171.8 146.161 1171.82 147.65C1171.84 149.734 1171.84 151.817 1171.84 153.901C1171.85 155.087 1171.85 156.274 1171.86 157.497C1171.5 160.403 1171.5 160.403 1170.21 162.266C1167.42 164.102 1164.35 163.792 1161.12 163.736C1160.45 163.748 1159.79 163.759 1159.1 163.771C1156.47 163.756 1154.32 163.738 1152.04 162.339C1150.03 159.337 1150.33 156.229 1150.36 152.741C1150.35 151.962 1150.35 151.182 1150.34 150.379C1150.33 147.799 1150.34 145.219 1150.35 142.639C1150.35 140.844 1150.34 139.048 1150.34 137.253C1150.34 133.487 1150.34 129.72 1150.36 125.954C1150.37 121.137 1150.36 116.32 1150.35 111.503C1150.34 107.793 1150.34 104.083 1150.35 100.373C1150.35 98.5981 1150.35 96.8228 1150.34 95.0476C1150.33 92.5582 1150.34 90.0695 1150.36 87.5801C1150.35 86.8523 1150.35 86.1244 1150.34 85.3745C1150.4 80.3076 1151.42 76.9202 1153.71 72.4928C1159.73 66.8564 1170.39 67.0258 1177.98 69.298Z" fill="white"/>
<path d="M849.744 68.2811C850.432 68.2792 851.121 68.2774 851.83 68.2754C853.279 68.2741 854.728 68.2777 856.177 68.286C858.359 68.2965 860.54 68.2861 862.722 68.2734C873.693 68.2618 884.142 68.6018 893.719 74.47C894.595 74.9997 895.472 75.5294 896.375 76.0751C902.329 82.1852 904.079 88.4768 904.098 96.8179C903.909 105.066 903.197 110.829 897.055 116.758C893.184 120.193 888.702 121.411 883.833 122.87C884.256 123.601 884.68 124.333 885.116 125.086C886.71 127.842 888.304 130.598 889.897 133.354C890.582 134.539 891.267 135.724 891.953 136.909C893.595 139.745 895.232 142.585 896.859 145.43C897.977 147.366 899.114 149.292 900.282 151.199C900.742 151.966 901.203 152.734 901.677 153.525C902.078 154.172 902.478 154.819 902.891 155.485C903.843 158.096 903.393 159.753 902.615 162.38C900.399 164.595 895.396 163.644 892.421 163.676C891.563 163.705 890.705 163.734 889.82 163.763C888.99 163.772 888.16 163.78 887.305 163.788C886.545 163.803 885.785 163.817 885.002 163.832C881.889 163.162 880.888 161.887 878.89 159.417C877.45 156.95 876.115 154.513 874.828 151.97C874.461 151.257 874.093 150.544 873.715 149.809C872.944 148.308 872.176 146.805 871.412 145.301C870.239 142.992 869.053 140.69 867.866 138.388C867.117 136.928 866.369 135.467 865.622 134.005C865.267 133.315 864.912 132.624 864.546 131.913C862.085 127.05 862.085 127.05 862.085 124.845C857.844 124.845 853.604 124.845 849.234 124.845C849.245 125.807 849.255 126.769 849.266 127.759C849.301 131.34 849.324 134.92 849.343 138.501C849.353 140.048 849.366 141.595 849.383 143.142C849.407 145.371 849.419 147.6 849.427 149.829C849.437 150.516 849.448 151.204 849.458 151.912C849.459 155.829 849.119 158.902 847.257 162.38C844.273 163.871 841.198 163.59 837.928 163.615C837.254 163.635 836.581 163.655 835.887 163.676C831.011 163.715 831.011 163.715 828.777 162.328C826.81 159.397 827.074 156.424 827.103 153.015C827.097 152.264 827.092 151.514 827.087 150.741C827.074 148.256 827.082 145.773 827.092 143.289C827.09 141.56 827.088 139.831 827.084 138.103C827.079 134.475 827.086 130.849 827.1 127.222C827.117 122.584 827.107 117.947 827.089 113.309C827.078 109.736 827.082 106.164 827.089 102.591C827.091 100.882 827.089 99.1729 827.082 97.4638C827.075 95.0666 827.086 92.6702 827.103 90.2731C827.097 89.573 827.091 88.8728 827.084 88.1514C827.163 81.9315 828.779 77.5469 832.676 72.6797C837.788 68.617 843.387 68.2924 849.744 68.2811ZM849.234 88.2986C848.96 90.405 848.96 90.405 849.041 92.8129C849.048 93.6978 849.054 94.5828 849.06 95.4945C849.077 96.4202 849.094 97.3458 849.111 98.2996C849.12 99.2329 849.128 100.166 849.138 101.128C849.161 103.437 849.194 105.745 849.234 108.054C852.715 108.111 856.195 108.146 859.676 108.177C860.655 108.194 861.634 108.21 862.643 108.227C869.079 108.27 874.825 108.263 880.25 104.411C882.458 101.271 882.779 99.0362 882.845 95.2128C881.657 91.5842 880.668 89.832 877.52 87.6542C872.43 85.7576 867.716 85.9308 862.332 86.0144C861.291 86.0112 860.25 86.008 859.178 86.0047C853.657 85.6748 853.657 85.6748 849.234 88.2986Z" fill="white"/>
<path d="M1108.23 71.5047C1117.46 80.3754 1120.19 95.2564 1123.73 107.087C1124.15 108.469 1124.57 109.852 1124.98 111.234C1125.85 114.103 1126.7 116.974 1127.56 119.845C1128.65 123.512 1129.76 127.174 1130.88 130.834C1131.74 133.675 1132.59 136.52 1133.44 139.366C1133.84 140.718 1134.25 142.069 1134.67 143.418C1135.24 145.301 1135.8 147.19 1136.36 149.08C1136.84 150.683 1136.84 150.683 1137.33 152.319C1137.98 155.948 1137.65 158.784 1136.9 162.378C1134.81 164.471 1130.57 163.73 1127.7 163.798C1126.93 163.843 1126.17 163.888 1125.38 163.935C1123.15 163.979 1121.27 163.916 1119.11 163.366C1115.56 159.559 1114.28 155.361 1112.93 150.402C1112.6 149.217 1112.27 148.033 1111.93 146.813C1111.2 143.611 1111.2 143.611 1111.2 139.66C1097.82 139.66 1084.45 139.66 1070.67 139.66C1069.36 144.875 1068.06 150.09 1066.72 155.464C1063.75 162.378 1063.75 162.378 1061.77 163.366C1059.12 163.488 1056.51 163.549 1053.86 163.551C1053.14 163.563 1052.41 163.575 1051.66 163.588C1049.75 163.593 1047.85 163.486 1045.96 163.366C1043.98 161.39 1043.98 161.39 1043.74 158.245C1043.98 154.396 1044.69 151.209 1045.79 147.516C1045.98 146.858 1046.18 146.201 1046.37 145.523C1047.01 143.365 1047.66 141.211 1048.31 139.058C1048.76 137.544 1049.21 136.029 1049.66 134.515C1050.61 131.345 1051.56 128.177 1052.52 125.01C1053.74 120.982 1054.94 116.948 1056.13 112.913C1057.06 109.783 1058 106.657 1058.94 103.531C1059.39 102.047 1059.83 100.562 1060.27 99.0757C1067.2 75.627 1067.2 75.627 1076.35 69.6141C1085.96 64.9916 1099.5 64.9305 1108.23 71.5047ZM1086.97 87.3638C1084.15 90.692 1083.24 93.2331 1082.08 97.4178C1081.89 98.0881 1081.7 98.7585 1081.5 99.4491C1080.9 101.572 1080.33 103.7 1079.75 105.829C1079.35 107.274 1078.94 108.718 1078.53 110.162C1076.55 115.956 1076.55 115.956 1075.61 121.88C1085.4 121.88 1095.18 121.88 1105.27 121.88C1103.86 114.856 1102.35 108.172 1100.39 101.323C1100.14 100.419 1099.89 99.5158 1099.63 98.585C1097.79 92.103 1097.79 92.103 1094.39 86.321C1090.89 84.6616 1089.99 84.8933 1086.97 87.3638Z" fill="white"/>
<path d="M701.943 71.5047C711.17 80.3754 713.899 95.2564 717.443 107.087C717.859 108.469 718.276 109.852 718.692 111.234C719.555 114.103 720.413 116.974 721.269 119.845C722.362 123.512 723.474 127.174 724.59 130.834C725.452 133.675 726.302 136.52 727.149 139.366C727.553 140.718 727.962 142.069 728.376 143.418C728.953 145.301 729.509 147.19 730.066 149.08C730.547 150.683 730.547 150.683 731.038 152.319C731.685 155.948 731.361 158.784 730.611 162.378C728.515 164.471 724.277 163.73 721.405 163.798C720.641 163.843 719.877 163.888 719.09 163.935C716.86 163.979 714.979 163.916 712.817 163.366C709.272 159.559 707.989 155.361 706.638 150.402C706.307 149.217 705.976 148.033 705.634 146.813C704.908 143.611 704.908 143.611 704.908 139.66C691.534 139.66 678.159 139.66 664.378 139.66C663.073 144.875 661.769 150.09 660.424 155.464C657.459 162.378 657.459 162.378 655.481 163.366C652.833 163.488 650.222 163.549 647.573 163.551C646.844 163.563 646.115 163.575 645.364 163.588C643.463 163.593 641.562 163.486 639.665 163.366C637.688 161.39 637.688 161.39 637.451 158.245C637.693 154.396 638.401 151.209 639.499 147.516C639.692 146.858 639.885 146.201 640.084 145.523C640.72 143.365 641.369 141.211 642.02 139.058C642.472 137.544 642.923 136.029 643.374 134.515C644.32 131.345 645.273 128.177 646.231 125.01C647.449 120.982 648.647 116.948 649.84 112.913C650.767 109.783 651.707 106.657 652.649 103.531C653.095 102.047 653.537 100.562 653.975 99.0757C660.906 75.627 660.906 75.627 670.055 69.6141C679.673 64.9916 693.209 64.9305 701.943 71.5047ZM680.679 87.3638C677.862 90.692 676.95 93.2331 675.789 97.4178C675.599 98.0881 675.408 98.7585 675.212 99.4491C674.613 101.572 674.036 103.7 673.461 105.829C673.056 107.274 672.65 108.718 672.242 110.162C670.26 115.956 670.26 115.956 669.321 121.88C679.108 121.88 688.894 121.88 698.977 121.88C697.571 114.856 696.055 108.172 694.096 101.323C693.847 100.419 693.598 99.5158 693.341 98.585C691.501 92.103 691.501 92.103 688.103 86.321C684.597 84.6616 683.698 84.8933 680.679 87.3638Z" fill="white"/>
<path d="M771.096 68.2436C772.783 68.2373 772.783 68.2373 774.503 68.2308C776.869 68.2251 779.235 68.2246 781.602 68.2289C785.231 68.2321 788.86 68.2088 792.489 68.1838C794.79 68.1816 797.092 68.1809 799.393 68.1819C800.481 68.1728 801.568 68.1637 802.688 68.1543C804.198 68.1636 804.198 68.1636 805.739 68.173C806.624 68.1723 807.51 68.1717 808.423 68.1711C811.152 68.6172 812.029 69.2959 813.65 71.504C814.044 74.282 814.044 74.282 814.021 77.4305C814.032 78.989 814.032 78.989 814.044 80.579C813.595 83.7431 813.141 84.3969 810.684 86.3203C807.687 86.6241 804.883 86.7559 801.884 86.7563C801.02 86.7693 800.156 86.7824 799.266 86.7958C796.502 86.8362 793.739 86.8576 790.975 86.8759C788.215 86.8994 785.456 86.9272 782.696 86.9665C780.978 86.9906 779.261 87.0053 777.543 87.0096C776.762 87.0197 775.98 87.0297 775.174 87.0401C774.49 87.0443 773.805 87.0486 773.099 87.0529C770.706 87.2563 770.706 87.2563 767.189 89.2835C766.862 95.1508 766.536 101.018 766.2 107.063C768.937 107.017 771.674 106.971 774.494 106.924C777.148 106.893 779.801 106.869 782.454 106.846C784.297 106.826 786.14 106.799 787.983 106.765C790.633 106.717 793.283 106.695 795.933 106.677C796.756 106.657 797.579 106.636 798.427 106.615C804.14 106.613 804.14 106.613 807.251 108.897C809.105 111.592 809.206 113.259 809.14 116.508C809.138 117.447 809.137 118.385 809.136 119.352C808.707 121.879 808.707 121.879 807.445 123.635C803.363 126.53 798.421 125.959 793.617 125.927C792.832 125.925 792.048 125.924 791.24 125.923C788.742 125.917 786.244 125.905 783.747 125.892C782.05 125.887 780.354 125.883 778.657 125.879C774.505 125.868 770.352 125.851 766.2 125.83C766.21 126.762 766.221 127.694 766.231 128.654C766.265 132.124 766.29 135.593 766.309 139.064C766.319 140.563 766.332 142.062 766.349 143.561C766.373 145.722 766.384 147.882 766.393 150.042C766.403 151.34 766.414 152.639 766.424 153.976C766.21 157.28 765.769 159.47 764.223 162.377C761.239 163.868 758.164 163.587 754.894 163.612C754.22 163.632 753.547 163.653 752.853 163.674C747.976 163.712 747.976 163.712 745.742 162.325C743.776 159.394 744.039 156.422 744.068 153.012C744.063 152.262 744.058 151.511 744.053 150.738C744.04 148.254 744.048 145.77 744.058 143.286C744.056 141.557 744.053 139.828 744.05 138.1C744.045 134.473 744.052 130.846 744.066 127.219C744.082 122.581 744.073 117.944 744.055 113.306C744.044 109.733 744.048 106.161 744.055 102.588C744.057 100.879 744.055 99.1701 744.048 97.461C744.04 95.0638 744.052 92.6675 744.068 90.2703C744.062 89.5702 744.056 88.87 744.05 88.1487C744.129 81.9287 745.745 77.5441 749.642 72.6769C755.957 67.6579 763.381 68.2372 771.096 68.2436Z" fill="white"/>
<path d="M1031.13 70.5172C1034.12 73.4227 1034.26 75.9558 1034.4 79.9626C1034.39 83.2517 1033.89 85.4936 1032.12 88.2968C1029.19 89.3845 1027.22 89.2909 1024.13 88.8215C1019.7 88.2213 1015.39 88.0412 1010.93 87.9881C1010.13 87.9594 1009.33 87.9308 1008.51 87.9013C1001.59 87.8289 996.345 89.6201 991.279 94.4085C987.16 101.269 986.166 108.061 986.275 115.954C986.263 116.781 986.252 117.609 986.24 118.462C986.273 125.532 987.507 132.329 991.897 138.055C998.201 144.207 1004.84 144.463 1013.34 144.599C1016.01 144.401 1018.59 144.002 1021.24 143.611C1022.99 143.469 1024.74 143.368 1026.5 143.302C1027.31 143.265 1028.12 143.228 1028.96 143.19C1031.13 143.611 1031.13 143.611 1032.88 145.332C1034.88 149.006 1034.6 152.379 1034.1 156.452C1033.17 159.292 1033.17 159.292 1031.13 161.391C1018.45 167.521 1001.65 166.799 988.623 162.378C982.875 159.652 977.956 156.364 973.795 151.513C973.309 150.958 972.824 150.403 972.323 149.831C961.755 136.939 962.147 120.896 962.921 105.089C964.275 93.9511 969.316 83.837 977.544 76.1659C991.85 65.034 1014.66 63.3052 1031.13 70.5172Z" fill="white"/>
<path d="M669.568 186.27C673.773 189.039 675.207 192.303 676.315 197.096C676.644 198.698 676.962 200.303 677.272 201.908C677.443 202.756 677.615 203.604 677.791 204.478C678.334 207.174 678.863 209.871 679.392 212.569C679.759 214.403 680.126 216.236 680.495 218.069C681.393 222.552 682.28 227.036 683.161 231.522C683.487 231.522 683.813 231.522 684.149 231.522C684.338 230.521 684.527 229.52 684.722 228.489C685.433 224.737 686.159 220.988 686.889 217.24C687.201 215.624 687.51 214.008 687.814 212.391C691.987 190.286 691.987 190.286 697.804 186.023C702.871 184.534 706.509 184.711 711.581 186.147C715.485 188.472 716.47 190.802 717.76 194.975C718.402 198.069 718.782 201.169 719.131 204.308C719.236 205.191 719.342 206.074 719.45 206.984C719.67 208.845 719.885 210.707 720.095 212.57C720.414 215.385 720.751 218.197 721.09 221.009C723.402 240.604 723.402 240.604 722.702 248.313C721.714 249.301 721.714 249.301 719.022 249.398C717.388 249.38 717.388 249.38 715.721 249.363C714.629 249.354 713.537 249.345 712.412 249.336C711.567 249.324 710.722 249.313 709.851 249.301C708.146 243.96 707.343 238.858 706.816 233.285C706.731 232.44 706.646 231.594 706.559 230.724C706.291 228.047 706.032 225.371 705.774 222.694C705.593 220.869 705.411 219.045 705.229 217.22C704.786 212.769 704.351 208.317 703.92 203.865C702.289 210.132 700.779 216.408 699.472 222.751C699.227 223.939 698.982 225.126 698.73 226.349C698.231 228.795 697.737 231.241 697.248 233.688C697.003 234.867 696.758 236.045 696.506 237.259C696.292 238.316 696.078 239.374 695.857 240.463C694.981 243.522 693.938 245.749 692.058 248.313C689.093 249.301 686.885 249.529 683.779 249.61C682.391 249.665 682.391 249.665 680.975 249.722C677.311 249.163 675.817 248.03 673.275 245.35C672.102 242.375 672.102 242.375 671.298 238.745C671.148 238.084 670.997 237.423 670.842 236.742C670.308 234.348 669.812 231.949 669.321 229.546C669.107 228.505 668.892 227.464 668.671 226.391C667.199 219.22 665.772 212.04 664.379 204.852C664.052 204.852 663.726 204.852 663.39 204.852C663.281 205.988 663.171 207.124 663.058 208.294C662.649 212.525 662.23 216.755 661.809 220.985C661.629 222.813 661.45 224.641 661.274 226.469C661.021 229.103 660.758 231.736 660.494 234.369C660.418 235.181 660.341 235.993 660.263 236.83C659.811 241.24 659.062 245.128 657.459 249.301C655.502 249.328 653.546 249.347 651.589 249.363C650.5 249.374 649.41 249.386 648.288 249.398C645.596 249.301 645.596 249.301 644.608 248.313C643.701 238.324 645.361 228.126 646.557 218.221C646.895 215.399 647.214 212.575 647.533 209.751C647.747 207.936 647.963 206.122 648.18 204.308C648.272 203.474 648.365 202.639 648.461 201.779C649.092 196.717 650.102 192.583 652.516 188.061C658.232 184.656 663.307 183.984 669.568 186.27Z" fill="white"/>
<path d="M1216.97 185.836C1217.95 185.816 1218.93 185.796 1219.94 185.775C1227.55 185.735 1236.97 185.974 1242.8 191.516C1246.49 196.432 1246.26 201.896 1245.64 207.814C1244.32 211.349 1242.39 214.028 1239.71 216.704C1241.09 217.529 1241.09 217.529 1242.49 218.37C1245.73 220.72 1246.91 222.046 1248.61 225.593C1249 228.711 1249 228.711 1248.98 232.014C1248.99 233.649 1248.99 233.649 1249 235.317C1248.43 239.853 1246.65 242.39 1243.42 245.534C1236.52 250.076 1228.82 249.637 1220.86 249.611C1218.83 249.608 1216.79 249.631 1214.76 249.656C1213.47 249.657 1212.18 249.658 1210.85 249.658C1209.68 249.661 1208.51 249.664 1207.3 249.667C1203.64 249.244 1201.96 248.76 1199.18 246.336C1195.99 240.881 1195.79 235.214 1195.86 229.047C1195.86 228.175 1195.85 227.304 1195.85 226.406C1195.86 224.576 1195.87 222.746 1195.88 220.915C1195.91 218.128 1195.9 215.341 1195.9 212.554C1195.9 210.767 1195.91 208.98 1195.92 207.193C1195.92 206.367 1195.92 205.542 1195.91 204.692C1195.97 199.776 1196.48 195.649 1198.19 191.022C1203.94 185.426 1209.4 185.875 1216.97 185.836ZM1211.04 198.924C1210.97 201.084 1210.96 203.245 1210.98 205.406C1210.99 206.589 1211 207.772 1211.01 208.991C1211.02 209.906 1211.03 210.822 1211.04 211.765C1220.64 212.138 1220.64 212.138 1229.83 209.789C1232.15 206.931 1232.15 206.931 1231.68 203.307C1231.2 199.95 1231.2 199.95 1229.26 198.723C1225.93 197.631 1222.72 197.689 1219.26 197.751C1218.58 197.752 1217.9 197.752 1217.2 197.753C1213.84 197.496 1213.84 197.496 1211.04 198.924ZM1211.04 223.618C1210.99 225.717 1210.95 227.816 1210.92 229.915C1210.9 231.084 1210.87 232.253 1210.85 233.457C1210.72 236.569 1210.72 236.569 1213.02 238.434C1220.09 239.14 1227.77 239.661 1233.78 235.471C1235.1 232.66 1235.1 232.66 1234.77 229.544C1233.66 226.741 1233.66 226.741 1231.8 224.606C1229.07 223.695 1227.47 223.501 1224.65 223.521C1223.46 223.526 1223.46 223.526 1222.25 223.531C1221.02 223.543 1221.02 223.543 1219.75 223.556C1218.5 223.563 1218.5 223.563 1217.22 223.57C1215.16 223.581 1213.1 223.599 1211.04 223.618Z" fill="white"/>
<path d="M819.704 185.9C820.701 185.887 821.697 185.875 822.724 185.863C831.893 185.845 840.381 186.35 847.26 192.999C851.247 198.268 850.948 204.453 850.225 210.779C849.176 214.854 847.792 217.66 844.248 220.039C842.313 221.026 840.4 221.881 838.363 222.632C839.506 225.899 841.004 228.817 842.73 231.803C843.174 232.571 843.618 233.34 844.076 234.132C845.009 235.733 845.948 237.33 846.895 238.924C847.335 239.691 847.775 240.458 848.229 241.248C848.636 241.941 849.043 242.634 849.462 243.348C850.379 245.753 850.095 246.917 849.237 249.301C847.038 249.515 844.832 249.668 842.626 249.795C841.399 249.887 840.172 249.978 838.907 250.073C835.039 249.222 834.753 249 832.741 245.871C831.945 244.398 831.184 242.906 830.455 241.399C830.096 240.67 829.738 239.941 829.368 239.19C826.457 233.169 826.457 233.169 825.174 230.277C823.247 226.146 823.247 226.146 819.506 223.893C817.076 223.538 817.076 223.538 813.649 223.619C813.655 224.327 813.66 225.035 813.665 225.764C813.686 228.959 813.699 232.154 813.711 235.349C813.72 236.463 813.728 237.577 813.736 238.725C813.74 239.788 813.743 240.851 813.746 241.947C813.751 242.93 813.756 243.912 813.762 244.925C813.649 247.325 813.649 247.325 812.661 249.301C810.726 249.381 808.79 249.438 806.853 249.486C805.236 249.538 805.236 249.538 803.586 249.59C802.666 249.495 801.746 249.399 800.798 249.301C798.685 246.133 798.572 245.31 798.566 241.668C798.559 240.722 798.553 239.775 798.547 238.8C798.551 237.778 798.555 236.757 798.559 235.704C798.557 234.65 798.555 233.597 798.553 232.511C798.552 230.279 798.555 228.047 798.564 225.815C798.574 222.412 798.564 219.009 798.551 215.605C798.552 213.436 798.555 211.266 798.559 209.096C798.555 208.083 798.551 207.069 798.547 206.024C798.582 200.654 798.853 196.058 800.798 191.024C806.589 185.385 812.082 185.904 819.704 185.9ZM813.649 199.913C813.409 203.003 813.409 203.003 813.526 206.457C813.544 207.631 813.562 208.805 813.58 210.015C813.603 210.919 813.626 211.823 813.649 212.754C824.463 213.341 824.463 213.341 834.409 209.791C835.774 208.641 835.774 208.641 835.644 205.469C835.704 202.016 835.704 202.016 834.162 200.037C830.372 197.603 826.331 197.777 821.928 197.753C820.227 197.732 820.227 197.732 818.492 197.71C815.501 197.636 815.501 197.636 813.649 199.913Z" fill="white"/>
<path d="M1064.73 185.9C1065.61 185.886 1066.49 185.872 1067.39 185.858C1069.68 186.085 1069.68 186.085 1071.65 188.061C1071.88 190.37 1071.88 190.37 1071.85 193.223C1071.84 194.141 1071.84 195.058 1071.83 196.004C1071.81 197.756 1071.81 197.756 1071.78 199.543C1071.74 203.251 1071.7 206.959 1071.65 210.779C1081.12 210.779 1090.58 210.779 1100.32 210.779C1100.24 203.391 1100.24 203.391 1100.14 196.004C1100.14 195.086 1100.13 194.169 1100.13 193.223C1100.11 191.811 1100.11 191.811 1100.1 190.37C1100.32 188.061 1100.32 188.061 1102.3 186.085C1104.59 185.823 1104.59 185.823 1107.24 185.838C1108.12 185.833 1109 185.828 1109.9 185.823C1112.18 186.085 1112.18 186.085 1114.16 188.061C1114.41 190.579 1114.41 190.579 1114.4 193.8C1114.41 195.605 1114.41 195.605 1114.41 197.446C1114.4 198.764 1114.4 200.081 1114.39 201.399C1114.39 202.745 1114.39 204.091 1114.39 205.436C1114.39 208.257 1114.38 211.078 1114.37 213.898C1114.35 217.521 1114.34 221.144 1114.35 224.767C1114.35 227.545 1114.34 230.324 1114.33 233.102C1114.33 234.438 1114.33 235.775 1114.33 237.111C1114.32 238.975 1114.32 240.838 1114.31 242.702C1114.3 244.295 1114.3 244.295 1114.29 245.921C1114.16 248.314 1114.16 248.314 1113.17 249.301C1111.2 249.399 1109.22 249.43 1107.24 249.425C1106.16 249.427 1105.08 249.43 1103.97 249.433C1101.31 249.301 1101.31 249.301 1100.32 248.314C1100.24 246.483 1100.22 244.648 1100.23 242.815C1100.23 241.815 1100.23 240.815 1100.23 239.784C1100.24 238.504 1100.25 237.224 1100.26 235.905C1100.28 231.851 1100.3 227.797 1100.32 223.62C1090.86 223.62 1081.4 223.62 1071.65 223.62C1071.69 231.333 1071.69 231.333 1071.74 239.045C1071.75 240.003 1071.75 240.961 1071.75 241.947C1071.76 242.93 1071.76 243.913 1071.77 244.926C1071.65 247.326 1071.65 247.326 1070.67 249.301C1068.73 249.381 1066.79 249.439 1064.86 249.487C1063.24 249.538 1063.24 249.538 1061.59 249.591C1060.67 249.495 1059.75 249.4 1058.8 249.301C1056.57 245.951 1056.58 244.807 1056.59 240.88C1056.58 239.763 1056.58 238.646 1056.58 237.494C1056.58 236.287 1056.59 235.08 1056.6 233.837C1056.6 232.598 1056.6 231.36 1056.6 230.084C1056.6 227.463 1056.61 224.843 1056.62 222.223C1056.64 218.865 1056.64 215.507 1056.64 212.149C1056.64 208.945 1056.65 205.741 1056.66 202.538C1056.66 200.727 1056.66 200.727 1056.66 198.88C1056.67 197.204 1056.67 197.204 1056.68 195.494C1056.69 194.509 1056.69 193.525 1056.69 192.51C1056.83 190.036 1056.83 190.036 1057.82 187.073C1060.26 185.849 1062 185.92 1064.73 185.9Z" fill="white"/>
<path d="M770.362 187.605C776.054 192.249 777.698 199.186 779.75 205.932C780.075 206.984 780.401 208.036 780.737 209.12C781.421 211.337 782.099 213.555 782.773 215.775C783.806 219.168 784.863 222.553 785.922 225.938C786.585 228.097 787.246 230.257 787.905 232.417C788.381 233.931 788.381 233.931 788.866 235.476C790.346 240.422 791.458 244.181 789.925 249.301C788.01 249.408 786.095 249.484 784.179 249.548C783.112 249.594 782.046 249.64 780.947 249.687C779.995 249.559 779.043 249.432 778.062 249.301C775.096 245.35 775.096 245.35 772.131 234.485C763.649 234.485 755.167 234.485 746.429 234.485C745.797 236.563 745.165 238.641 744.513 240.782C742.598 247.079 742.598 247.079 741.486 249.301C737.245 249.301 733.004 249.301 728.635 249.301C727.74 244.829 727.532 243.71 728.711 239.697C729.098 238.351 729.098 238.351 729.492 236.978C729.782 236.019 730.071 235.06 730.369 234.072C730.663 233.072 730.958 232.072 731.261 231.041C731.888 228.925 732.521 226.811 733.159 224.698C734.124 221.493 735.061 218.281 735.997 215.067C736.611 213.006 737.227 210.945 737.845 208.884C738.12 207.935 738.395 206.986 738.679 206.008C740.98 198.5 743.845 190.394 750.63 185.961C757.826 184.284 763.683 184.282 770.362 187.605ZM757.303 197.938C753.84 202.064 752.944 207.455 751.68 212.569C750.926 215.564 750.172 218.558 749.394 221.644C755.919 221.644 762.443 221.644 769.165 221.644C768.226 218.061 767.277 214.481 766.323 210.902C766.057 209.882 765.791 208.862 765.516 207.811C765.255 206.837 764.994 205.863 764.725 204.86C764.486 203.96 764.248 203.06 764.003 202.132C763.358 199.75 763.358 199.75 761.257 197.938C759.952 197.938 758.647 197.938 757.303 197.938Z" fill="white"/>
<path d="M1134.92 185.901C1135.8 185.887 1136.67 185.873 1137.58 185.859C1139.86 186.086 1139.86 186.086 1141.84 188.062C1142.06 191.037 1142.16 193.928 1142.18 196.905C1142.2 197.787 1142.21 198.669 1142.22 199.578C1142.27 202.407 1142.3 205.235 1142.34 208.064C1142.38 211.773 1142.43 215.482 1142.49 219.191C1142.49 220.04 1142.5 220.889 1142.51 221.764C1142.58 226.332 1142.83 230.272 1144.81 234.486C1149.82 236.734 1155.2 237.112 1160.62 236.462C1164.64 234.928 1166.13 234.128 1168.53 230.535C1168.85 228.625 1168.85 228.625 1168.83 226.528C1168.85 225.727 1168.86 224.926 1168.88 224.101C1168.89 223.24 1168.9 222.378 1168.91 221.491C1168.92 220.603 1168.94 219.716 1168.96 218.801C1169.01 215.963 1169.05 213.125 1169.09 210.286C1169.13 207.448 1169.18 204.609 1169.23 201.771C1169.26 200.005 1169.29 198.238 1169.31 196.471C1169.32 195.67 1169.33 194.869 1169.35 194.044C1169.36 192.988 1169.36 192.988 1169.38 191.911C1169.52 190.037 1169.52 190.037 1170.51 187.074C1172.96 185.85 1174.7 185.921 1177.43 185.901C1178.31 185.887 1179.18 185.873 1180.09 185.859C1182.37 186.086 1182.37 186.086 1184.35 188.062C1184.61 189.889 1184.61 189.889 1184.62 192.134C1184.63 193.396 1184.63 193.396 1184.65 194.684C1184.65 195.596 1184.65 196.509 1184.65 197.449C1184.65 198.39 1184.65 199.331 1184.66 200.3C1184.66 202.297 1184.66 204.294 1184.66 206.291C1184.66 209.324 1184.68 212.356 1184.71 215.389C1184.71 217.332 1184.71 219.274 1184.71 221.217C1184.72 222.116 1184.73 223.014 1184.73 223.94C1184.68 231.015 1183.38 237.083 1179.71 243.191C1171.48 250.977 1161.36 250.723 1150.69 250.56C1143.19 250.277 1137.64 248.551 1132.45 243.005C1126.94 235.712 1126.86 226.815 1126.88 218.018C1126.88 217.224 1126.88 216.43 1126.88 215.611C1126.88 213.944 1126.88 212.278 1126.88 210.611C1126.89 208.058 1126.88 205.504 1126.88 202.951C1126.88 201.327 1126.88 199.702 1126.88 198.078C1126.88 197.316 1126.88 196.553 1126.88 195.768C1126.89 192.608 1126.99 190.093 1128 187.074C1130.45 185.85 1132.19 185.921 1134.92 185.901Z" fill="white"/>
<path d="M933.692 68.2951C934.365 68.2748 935.039 68.2544 935.733 68.2334C940.709 68.1944 940.709 68.1944 942.843 69.812C945.09 72.7606 944.543 76.3936 944.517 79.9553C944.522 80.818 944.527 81.6807 944.533 82.5696C944.546 85.4256 944.537 88.281 944.527 91.1369C944.529 93.1187 944.532 95.1005 944.536 97.0823C944.54 101.237 944.534 105.392 944.52 109.547C944.503 114.879 944.513 120.209 944.531 125.541C944.541 129.634 944.538 133.726 944.53 137.819C944.528 139.785 944.531 141.751 944.537 143.717C944.545 146.463 944.534 149.208 944.517 151.953C944.526 153.177 944.526 153.177 944.535 154.426C944.473 159.954 944.473 159.954 942.855 162.09C940.006 164.245 936.687 163.832 933.259 163.799C932.543 163.818 931.827 163.838 931.089 163.858C925.903 163.854 925.903 163.854 923.663 161.877C921.837 158.359 921.98 155.012 922.017 151.141C922.014 150.309 922.01 149.476 922.006 148.619C921.998 145.869 922.012 143.12 922.026 140.37C922.027 138.459 922.026 136.547 922.025 134.636C922.025 130.63 922.035 126.625 922.053 122.619C922.076 117.484 922.076 112.349 922.069 107.214C922.066 103.267 922.073 99.32 922.082 95.373C922.086 93.4795 922.087 91.586 922.086 89.6925C922.085 87.0466 922.098 84.4011 922.114 81.7552C922.111 80.9721 922.109 80.1889 922.106 79.3821C922.172 72.5696 922.172 72.5696 924.362 69.5298C927.346 68.039 930.421 68.3197 933.692 68.2951Z" fill="white"/>
<path d="M869.009 185.901C869.885 185.887 870.762 185.873 871.665 185.859C873.951 186.086 873.951 186.086 875.929 188.062C876.244 190.371 876.244 190.371 876.338 193.224C876.376 194.243 876.414 195.261 876.454 196.311C876.484 197.378 876.515 198.445 876.546 199.544C876.585 200.619 876.623 201.694 876.662 202.801C876.756 205.46 876.84 208.12 876.917 210.78C883.151 203.576 889.35 196.381 895.182 188.845C896.688 187.074 896.688 187.074 898.665 186.086C900.639 185.966 902.618 185.913 904.596 185.901C905.656 185.887 906.717 185.873 907.809 185.859C910.527 186.086 910.527 186.086 912.505 188.062C912.222 191.815 910.108 194.031 907.747 196.828C906.562 198.239 906.562 198.239 905.353 199.679C904.443 200.746 903.531 201.812 902.619 202.878C901.836 203.796 901.836 203.796 901.038 204.732C897.624 208.735 894.195 212.725 890.757 216.707C892.383 220.569 895.009 223.468 897.738 226.584C901.51 230.983 905.239 235.406 908.798 239.98C909.537 240.919 910.276 241.857 911.037 242.824C912.505 245.351 912.505 245.351 912.242 247.663C912.002 248.204 911.763 248.745 911.516 249.302C899.798 250.801 899.798 250.801 895.054 247.45C892.768 244.88 890.764 242.233 888.78 239.425C887.366 237.669 885.946 235.92 884.516 234.177C883.3 232.635 882.085 231.092 880.871 229.547C879.555 227.9 878.237 226.253 876.917 224.609C876.892 225.286 876.868 225.964 876.842 226.663C876.728 229.723 876.606 232.784 876.485 235.844C876.446 236.911 876.407 237.978 876.367 239.078C876.325 240.096 876.284 241.115 876.241 242.164C876.187 243.576 876.187 243.576 876.132 245.017C875.929 247.327 875.929 247.327 874.94 249.302C873.005 249.382 871.069 249.44 869.132 249.488C867.515 249.539 867.515 249.539 865.866 249.592C864.945 249.496 864.025 249.401 863.078 249.302C860.842 245.952 860.855 244.808 860.86 240.881C860.857 239.764 860.854 238.647 860.851 237.495C860.858 236.288 860.865 235.081 860.873 233.838C860.873 232.599 860.874 231.361 860.874 230.085C860.877 227.464 860.884 224.844 860.897 222.224C860.914 218.866 860.918 215.508 860.917 212.15C860.917 208.946 860.926 205.742 860.934 202.538C860.936 200.728 860.936 200.728 860.938 198.881C860.947 197.205 860.947 197.205 860.957 195.495C860.961 194.51 860.964 193.526 860.968 192.511C861.1 190.037 861.1 190.037 862.089 187.074C864.538 185.85 866.277 185.921 869.009 185.901Z" fill="white"/>
<path d="M937.092 185.918C937.851 185.915 938.61 185.911 939.392 185.908C940.995 185.903 942.598 185.901 944.201 185.901C946.659 185.899 949.116 185.881 951.574 185.862C953.131 185.859 954.688 185.857 956.245 185.856C956.982 185.849 957.72 185.842 958.479 185.835C963.676 185.858 963.676 185.858 965.879 188.059C966.177 190.128 966.177 190.128 966.188 192.504C966.205 193.289 966.221 194.073 966.238 194.881C966.12 195.564 966.001 196.246 965.879 196.949C962.334 199.311 960.775 199.156 956.569 199.118C954.71 199.108 954.71 199.108 952.814 199.098C950.871 199.073 950.871 199.073 948.889 199.048C947.569 199.038 946.249 199.029 944.929 199.021C941.697 198.998 938.466 198.962 935.235 198.925C934.908 203.162 934.582 207.4 934.246 211.765C936.079 211.731 937.911 211.697 939.799 211.661C942.19 211.634 944.582 211.607 946.974 211.58C948.787 211.543 948.787 211.543 950.638 211.505C952.368 211.491 952.368 211.491 954.133 211.476C955.732 211.453 955.732 211.453 957.364 211.429C958.217 211.54 959.07 211.651 959.948 211.765C962.235 215.193 962.261 216.63 961.925 220.655C961.273 221.633 960.62 222.611 959.948 223.619C957.364 223.955 957.364 223.955 954.133 223.908C952.979 223.898 951.826 223.889 950.638 223.879C949.429 223.854 948.219 223.829 946.974 223.804C945.757 223.79 944.54 223.777 943.286 223.763C940.272 223.728 937.259 223.679 934.246 223.619C934.385 225.574 934.53 227.529 934.679 229.483C934.759 230.572 934.839 231.661 934.922 232.782C934.942 235.384 934.942 235.384 936.223 236.459C938.392 236.592 940.565 236.66 942.737 236.702C944.077 236.735 945.416 236.768 946.755 236.801C948.875 236.848 950.994 236.892 953.114 236.93C955.154 236.969 957.194 237.02 959.234 237.073C960.46 237.098 961.685 237.122 962.948 237.148C965.879 237.447 965.879 237.447 967.856 239.423C968.084 241.275 968.084 241.275 968.042 243.374C968.035 244.066 968.029 244.759 968.022 245.473C967.856 247.325 967.856 247.325 966.868 249.3C961.327 249.373 955.787 249.427 950.245 249.463C948.361 249.478 946.477 249.498 944.593 249.524C941.882 249.56 939.17 249.576 936.459 249.589C935.619 249.605 934.78 249.62 933.915 249.636C929.329 249.637 925.885 249.623 922.384 246.337C919.214 240.859 918.99 235.231 919.059 229.047C919.058 228.176 919.058 227.305 919.057 226.407C919.06 224.577 919.069 222.746 919.086 220.916C919.109 218.129 919.106 215.342 919.099 212.555C919.105 210.767 919.112 208.98 919.121 207.193C919.12 206.368 919.119 205.543 919.118 204.692C919.177 199.777 919.681 195.65 921.395 191.023C926.298 186.25 930.526 185.928 937.092 185.918Z" fill="white"/>
<path d="M976.919 185.84C977.805 185.841 978.69 185.843 979.602 185.844C980.605 185.841 981.608 185.838 982.641 185.835C983.727 185.842 984.814 185.849 985.933 185.856C987.6 185.857 987.6 185.857 989.301 185.858C991.655 185.861 994.008 185.868 996.361 185.881C999.974 185.899 1003.59 185.901 1007.2 185.901C1009.48 185.905 1011.76 185.911 1014.04 185.918C1015.13 185.919 1016.22 185.92 1017.34 185.921C1018.84 185.931 1018.84 185.931 1020.38 185.94C1021.26 185.944 1022.15 185.948 1023.06 185.952C1025.2 186.084 1025.2 186.084 1027.17 187.072C1028.57 194.16 1028.57 194.16 1026.19 198.925C1019.99 198.925 1013.79 198.925 1007.4 198.925C1007.41 200.416 1007.41 201.907 1007.42 203.443C1007.44 208.952 1007.45 214.462 1007.46 219.971C1007.46 222.36 1007.47 224.748 1007.48 227.137C1007.49 230.562 1007.49 233.987 1007.5 237.412C1007.5 238.488 1007.51 239.563 1007.51 240.671C1007.51 241.659 1007.51 242.648 1007.51 243.667C1007.52 244.542 1007.52 245.417 1007.52 246.319C1007.4 248.312 1007.4 248.312 1006.41 249.3C1004.46 249.45 1002.5 249.519 1000.54 249.547C999.476 249.573 998.406 249.598 997.305 249.624C996.396 249.517 995.488 249.41 994.552 249.3C992.429 246.118 992.331 245.306 992.35 241.648C992.35 240.699 992.35 239.75 992.351 238.772C992.361 237.751 992.371 236.729 992.382 235.676C992.384 234.628 992.387 233.58 992.39 232.5C992.401 229.148 992.426 225.797 992.451 222.446C992.461 220.175 992.47 217.904 992.478 215.634C992.5 210.064 992.533 204.494 992.575 198.925C990.682 198.959 990.682 198.959 988.752 198.994C987.102 199.013 985.451 199.031 983.801 199.048C982.553 199.073 982.553 199.073 981.28 199.098C980.483 199.105 979.687 199.111 978.866 199.118C978.131 199.128 977.396 199.138 976.639 199.149C974.781 198.925 974.781 198.925 972.804 196.949C972.541 194.881 972.541 194.881 972.557 192.504C972.552 191.72 972.547 190.936 972.541 190.128C972.921 187.133 973.929 186.181 976.919 185.84Z" fill="white"/>
<path d="M98.932 152.502C99.2582 153.154 99.5845 153.806 99.9206 154.477C110.686 153.499 110.686 153.499 121.668 152.502C119.691 160.404 119.691 160.404 118.703 162.379C113.772 161.777 109.211 160.765 104.431 159.354C103.209 158.996 101.987 158.639 100.728 158.27C99.8088 157.996 98.8901 157.723 97.9435 157.44C98.2697 155.811 98.5959 154.181 98.932 152.502Z" fill="#814730"/>
</svg>
