<svg width="20" height="23" viewBox="0 0 20 23" fill="none" xmlns="http://www.w3.org/2000/svg">
<path d="M1.27006 5.96186L10.0001 11.0119L18.7301 5.96186M10.0001 21.0819V11.0019M19.0001 15.0019V7.00186C18.9997 6.65113 18.9071 6.30667 18.7316 6.00302C18.5561 5.69937 18.3038 5.44722 18.0001 5.27186L11.0001 1.27186C10.696 1.09632 10.3511 1.00391 10.0001 1.00391C9.64899 1.00391 9.3041 1.09632 9.00006 1.27186L2.00006 5.27186C1.69632 5.44722 1.44404 5.69937 1.26852 6.00302C1.093 6.30667 1.00042 6.65113 1.00006 7.00186V15.0019C1.00042 15.3526 1.093 15.697 1.26852 16.0007C1.44404 16.3043 1.69632 16.5565 2.00006 16.7319L9.00006 20.7319C9.3041 20.9074 9.64899 20.9998 10.0001 20.9998C10.3511 20.9998 10.696 20.9074 11.0001 20.7319L18.0001 16.7319C18.3038 16.5565 18.5561 16.3043 18.7316 16.0007C18.9071 15.697 18.9997 15.3526 19.0001 15.0019Z" stroke="#F28C0D" stroke-width="2" stroke-linecap="round" stroke-linejoin="round"/>
</svg>
