<svg width="22" height="22" viewBox="0 0 22 22" fill="none" xmlns="http://www.w3.org/2000/svg">
<path d="M8.7084 8.2487C7.37465 7.79036 6.66423 7.32195 6.87507 5.4987C6.99423 4.47203 7.3334 3.66536 6.41673 2.7487L8.7084 1.83203C8.86148 2.90178 9.62507 4.1237 11.0001 4.58203C12.3751 4.1237 13.1386 2.90178 13.2917 1.83203L15.5834 2.7487C14.6667 3.66536 15.0059 4.47203 15.1251 5.4987C15.3359 7.32195 14.6255 7.79036 13.2917 8.2487M7.79173 10.9987H14.2084C13.7501 10.082 13.7501 9.16536 13.7501 8.2487H8.25007C8.25007 9.16536 8.25007 10.082 7.79173 10.9987Z" stroke="#464646" stroke-width="1.5" stroke-linecap="round" stroke-linejoin="round"/>
<path d="M14.9527 19.6607C16.1325 20.3353 17.6816 20.3207 18.8788 19.646C19.2088 19.4562 19.3802 19.019 19.1327 18.7559C17.3663 16.874 16.039 14.5759 15.1177 12.2421C14.8748 11.6252 14.7538 11.3181 14.5201 11.1586C14.2863 10.9991 13.9728 11 13.3467 11H8.65523C8.02732 11 7.71381 11 7.48006 11.1586C7.24631 11.3181 7.12531 11.6261 6.8824 12.2412C5.96115 14.5768 4.63381 16.874 2.8674 18.7559C2.6199 19.019 2.79223 19.4562 3.12131 19.6451C4.31848 20.3197 5.86765 20.3353 7.0474 19.6607C7.41352 19.4574 7.82536 19.3508 8.24411 19.3508C8.66285 19.3508 9.07469 19.4574 9.44081 19.6607C9.92115 19.9311 10.5069 20.1667 11.0001 20.1667C11.4932 20.1667 12.079 19.9311 12.5584 19.6607C12.9246 19.4573 13.3366 19.3506 13.7556 19.3506C14.1745 19.3506 14.5865 19.4573 14.9527 19.6607Z" stroke="#464646" stroke-width="1.5" stroke-linecap="round" stroke-linejoin="round"/>
</svg>
