<svg width="32" height="32" viewBox="0 0 32 32" fill="none" xmlns="http://www.w3.org/2000/svg">
<rect width="32" height="32" rx="16" fill="#FFF6D5"/>
<path d="M17.3333 9.3335H12C11.6463 9.3335 11.3072 9.47397 11.0572 9.72402C10.8071 9.97407 10.6666 10.3132 10.6666 10.6668V21.3335C10.6666 21.6871 10.8071 22.0263 11.0572 22.2763C11.3072 22.5264 11.6463 22.6668 12 22.6668H20C20.3536 22.6668 20.6927 22.5264 20.9428 22.2763C21.1928 22.0263 21.3333 21.6871 21.3333 21.3335V13.3335M17.3333 9.3335L21.3333 13.3335M17.3333 9.3335V13.3335H21.3333M18.6666 16.6668H13.3333M18.6666 19.3335H13.3333M14.6666 14.0002H13.3333" stroke="#F28C0D" stroke-linecap="round" stroke-linejoin="round"/>
</svg>
