<svg width="24" height="24" viewBox="0 0 24 24" fill="none" xmlns="http://www.w3.org/2000/svg">
<path opacity="0.4" d="M16.3328 22H7.66618C4.2769 22 2 19.6229 2 16.0843V7.91672C2 4.37811 4.2769 2 7.66618 2H16.3338C19.7231 2 22 4.37811 22 7.91672V16.0843C22 19.6229 19.7231 22 16.3328 22Z" fill="#989898"/>
<path fill-rule="evenodd" clip-rule="evenodd" d="M11.2451 8.6735C11.2451 10.0435 10.1301 11.1585 8.7601 11.1585C7.3891 11.1585 6.2751 10.0435 6.2751 8.6735C6.2751 7.3035 7.3891 6.1875 8.7601 6.1875C10.1301 6.1875 11.2451 7.3035 11.2451 8.6735ZM19.4005 14.0861C19.6335 14.3121 19.8005 14.5701 19.9105 14.8451C20.2435 15.6771 20.0705 16.6771 19.7145 17.5011C19.2925 18.4821 18.4845 19.2231 17.4665 19.5471C17.0145 19.6921 16.5405 19.7541 16.0675 19.7541H7.6865C6.8525 19.7541 6.1145 19.5601 5.5095 19.1961C5.1305 18.9681 5.0635 18.4431 5.3445 18.1011C5.8145 17.5311 6.2785 16.9591 6.7465 16.3821C7.6385 15.2781 8.2395 14.9581 8.9075 15.2391C9.1785 15.3551 9.4505 15.5301 9.7305 15.7141C10.4765 16.2081 11.5135 16.8861 12.8795 16.1501C13.8132 15.6395 14.3552 14.7659 14.827 14.0054L14.8365 13.9901C14.8682 13.9392 14.8997 13.8883 14.9311 13.8376C15.0915 13.5784 15.2495 13.3231 15.4285 13.0881C15.6505 12.7971 16.4745 11.8871 17.5395 12.5351C18.2185 12.9431 18.7895 13.4951 19.4005 14.0861Z" fill="#989898"/>
</svg>
