<svg width="32" height="33" viewBox="0 0 32 33" fill="none" xmlns="http://www.w3.org/2000/svg">
<rect y="0.5" width="32" height="32" rx="16" fill="#FFF6D5"/>
<path d="M10 12.4997L12 9.83301H20L22 12.4997M10 12.4997V21.833C10 22.1866 10.1405 22.5258 10.3905 22.7758C10.6406 23.0259 10.9797 23.1663 11.3333 23.1663H20.6667C21.0203 23.1663 21.3594 23.0259 21.6095 22.7758C21.8595 22.5258 22 22.1866 22 21.833V12.4997M10 12.4997H22M18.6667 15.1663C18.6667 15.8736 18.3857 16.5519 17.8856 17.052C17.3855 17.5521 16.7072 17.833 16 17.833C15.2928 17.833 14.6145 17.5521 14.1144 17.052C13.6143 16.5519 13.3333 15.8736 13.3333 15.1663" stroke="#F28C0D" stroke-linecap="round" stroke-linejoin="round"/>
</svg>
