<svg width="120" height="121" viewBox="0 0 120 121" fill="none" xmlns="http://www.w3.org/2000/svg">
<path d="M96.25 93H23.75C20.2875 93 17.5 90.2125 17.5 86.75V33.25H11.25V27H26.25V20.75C26.25 17.2875 29.0375 14.5 32.5 14.5H87.5C90.9625 14.5 93.75 17.2875 93.75 20.75V27H108.75V33.25H102.5V86.75C102.5 90.2125 99.7125 93 96.25 93ZM23.75 33.25H96.25V86.75H23.75V33.25ZM32.5 27H87.5V20.75H32.5V27Z" fill="#E0E0E0"/>
<path d="M60 74.5C56.5375 74.5 53.75 71.7125 53.75 68.25C53.75 64.7875 56.5375 62 60 62C63.4625 62 66.25 64.7875 66.25 68.25C66.25 71.7125 63.4625 74.5 60 74.5ZM60 68.25C60 68.25 60 68.25 60 68.25C60 68.25 60 68.25 60 68.25C60 68.25 60 68.25 60 68.25Z" fill="#E0E0E0"/>
<path d="M41.25 55.75C41.25 57.4062 39.9062 58.75 38.25 58.75C36.5938 58.75 35.25 57.4062 35.25 55.75C35.25 54.0938 36.5938 52.75 38.25 52.75C39.9062 52.75 41.25 54.0938 41.25 55.75Z" fill="#E0E0E0"/>
<path d="M84.75 55.75C84.75 57.4062 83.4062 58.75 81.75 58.75C80.0938 58.75 78.75 57.4062 78.75 55.75C78.75 54.0938 80.0938 52.75 81.75 52.75C83.4062 52.75 84.75 54.0938 84.75 55.75Z" fill="#E0E0E0"/>
</svg> 